<svg xmlns="http://www.w3.org/2000/svg" xmlns:xlink="http://www.w3.org/1999/xlink" width="400" zoomAndPan="magnify" viewBox="0 0 300 299.999988" height="400" preserveAspectRatio="xMidYMid meet" version="1.0"><path fill="#f38020" d="M 300 150 C 300 152.453125 299.941406 154.910156 299.820312 157.359375 C 299.699219 159.8125 299.519531 162.257812 299.277344 164.703125 C 299.035156 167.144531 298.738281 169.582031 298.375 172.007812 C 298.015625 174.4375 297.597656 176.855469 297.117188 179.261719 C 296.640625 181.671875 296.101562 184.066406 295.503906 186.445312 C 294.90625 188.828125 294.253906 191.195312 293.539062 193.542969 C 292.828125 195.890625 292.058594 198.222656 291.230469 200.535156 C 290.40625 202.84375 289.519531 205.132812 288.582031 207.402344 C 287.640625 209.671875 286.648438 211.914062 285.597656 214.132812 C 284.546875 216.351562 283.445312 218.542969 282.289062 220.710938 C 281.132812 222.875 279.921875 225.011719 278.660156 227.117188 C 277.398438 229.222656 276.085938 231.292969 274.71875 233.335938 C 273.355469 235.375 271.945312 237.382812 270.480469 239.355469 C 269.019531 241.328125 267.507812 243.261719 265.953125 245.160156 C 264.394531 247.054688 262.792969 248.914062 261.144531 250.734375 C 259.492188 252.554688 257.800781 254.332031 256.066406 256.066406 C 254.332031 257.800781 252.554688 259.492188 250.734375 261.144531 C 248.914062 262.792969 247.054688 264.394531 245.160156 265.953125 C 243.261719 267.507812 241.328125 269.019531 239.355469 270.480469 C 237.382812 271.945312 235.375 273.355469 233.335938 274.71875 C 231.292969 276.085938 229.222656 277.398438 227.117188 278.660156 C 225.011719 279.921875 222.875 281.132812 220.710938 282.289062 C 218.542969 283.445312 216.351562 284.546875 214.132812 285.597656 C 211.914062 286.648438 209.671875 287.640625 207.402344 288.582031 C 205.132812 289.519531 202.84375 290.40625 200.535156 291.230469 C 198.222656 292.058594 195.890625 292.828125 193.542969 293.542969 C 191.195312 294.253906 188.828125 294.90625 186.445312 295.503906 C 184.066406 296.101562 181.671875 296.640625 179.261719 297.117188 C 176.855469 297.597656 174.4375 298.015625 172.007812 298.375 C 169.582031 298.738281 167.144531 299.035156 164.703125 299.277344 C 162.257812 299.519531 159.8125 299.699219 157.359375 299.820312 C 154.910156 299.941406 152.453125 300 150 300 C 147.546875 300 145.089844 299.941406 142.640625 299.820312 C 140.1875 299.699219 137.742188 299.519531 135.296875 299.277344 C 132.855469 299.035156 130.417969 298.738281 127.992188 298.375 C 125.5625 298.015625 123.144531 297.597656 120.738281 297.117188 C 118.328125 296.640625 115.933594 296.101562 113.554688 295.503906 C 111.171875 294.90625 108.804688 294.253906 106.457031 293.539062 C 104.109375 292.828125 101.777344 292.058594 99.464844 291.230469 C 97.15625 290.40625 94.867188 289.519531 92.597656 288.582031 C 90.328125 287.640625 88.085938 286.648438 85.867188 285.597656 C 83.648438 284.546875 81.457031 283.445312 79.289062 282.289062 C 77.125 281.132812 74.988281 279.921875 72.882812 278.660156 C 70.777344 277.398438 68.707031 276.085938 66.664062 274.71875 C 64.625 273.355469 62.617188 271.945312 60.644531 270.480469 C 58.671875 269.019531 56.738281 267.507812 54.839844 265.953125 C 52.945312 264.394531 51.085938 262.792969 49.265625 261.144531 C 47.445312 259.492188 45.667969 257.800781 43.933594 256.066406 C 42.199219 254.332031 40.507812 252.554688 38.855469 250.734375 C 37.207031 248.914062 35.605469 247.054688 34.046875 245.160156 C 32.492188 243.261719 30.980469 241.328125 29.519531 239.355469 C 28.054688 237.382812 26.644531 235.375 25.28125 233.335938 C 23.914062 231.292969 22.601562 229.222656 21.339844 227.117188 C 20.078125 225.011719 18.867188 222.875 17.710938 220.710938 C 16.554688 218.542969 15.453125 216.351562 14.402344 214.132812 C 13.351562 211.914062 12.359375 209.671875 11.417969 207.402344 C 10.480469 205.132812 9.59375 202.84375 8.769531 200.535156 C 7.941406 198.222656 7.171875 195.890625 6.457031 193.542969 C 5.746094 191.195312 5.09375 188.828125 4.496094 186.445312 C 3.898438 184.066406 3.359375 181.671875 2.882812 179.261719 C 2.402344 176.855469 1.984375 174.4375 1.625 172.007812 C 1.261719 169.582031 0.964844 167.144531 0.722656 164.703125 C 0.480469 162.257812 0.300781 159.8125 0.179688 157.359375 C 0.0585938 154.910156 0 152.453125 0 150 C 0 147.546875 0.0585938 145.089844 0.179688 142.640625 C 0.300781 140.1875 0.480469 137.742188 0.722656 135.296875 C 0.964844 132.855469 1.261719 130.417969 1.625 127.992188 C 1.984375 125.5625 2.402344 123.144531 2.882812 120.738281 C 3.359375 118.328125 3.898438 115.933594 4.496094 113.554688 C 5.09375 111.171875 5.746094 108.804688 6.457031 106.457031 C 7.171875 104.109375 7.941406 101.777344 8.769531 99.464844 C 9.59375 97.15625 10.480469 94.867188 11.417969 92.597656 C 12.359375 90.328125 13.351562 88.085938 14.402344 85.867188 C 15.453125 83.648438 16.554688 81.457031 17.710938 79.289062 C 18.867188 77.125 20.078125 74.988281 21.339844 72.882812 C 22.601562 70.777344 23.914062 68.707031 25.28125 66.664062 C 26.644531 64.625 28.054688 62.617188 29.519531 60.644531 C 30.980469 58.671875 32.492188 56.738281 34.046875 54.839844 C 35.605469 52.945312 37.207031 51.085938 38.855469 49.265625 C 40.507812 47.445312 42.199219 45.667969 43.933594 43.933594 C 45.667969 42.199219 47.445312 40.507812 49.265625 38.855469 C 51.085938 37.207031 52.945312 35.605469 54.839844 34.046875 C 56.738281 32.492188 58.671875 30.980469 60.644531 29.519531 C 62.617188 28.054688 64.625 26.644531 66.664062 25.28125 C 68.707031 23.914062 70.777344 22.601562 72.882812 21.339844 C 74.988281 20.078125 77.125 18.867188 79.289062 17.710938 C 81.457031 16.554688 83.648438 15.453125 85.867188 14.402344 C 88.085938 13.351562 90.328125 12.359375 92.597656 11.417969 C 94.867188 10.480469 97.15625 9.59375 99.464844 8.769531 C 101.777344 7.941406 104.109375 7.171875 106.457031 6.457031 C 108.804688 5.746094 111.171875 5.089844 113.554688 4.496094 C 115.933594 3.898438 118.328125 3.359375 120.738281 2.882812 C 123.144531 2.402344 125.5625 1.984375 127.992188 1.625 C 130.417969 1.261719 132.855469 0.964844 135.296875 0.722656 C 137.742188 0.480469 140.1875 0.300781 142.640625 0.179688 C 145.089844 0.0585938 147.546875 0 150 0 C 152.453125 0 154.910156 0.0585938 157.359375 0.179688 C 159.8125 0.300781 162.257812 0.480469 164.703125 0.722656 C 167.144531 0.964844 169.582031 1.261719 172.007812 1.625 C 174.4375 1.984375 176.855469 2.402344 179.261719 2.882812 C 181.671875 3.359375 184.066406 3.898438 186.445312 4.496094 C 188.828125 5.089844 191.195312 5.746094 193.542969 6.457031 C 195.890625 7.171875 198.222656 7.941406 200.535156 8.769531 C 202.84375 9.59375 205.132812 10.480469 207.402344 11.417969 C 209.671875 12.359375 211.914062 13.351562 214.132812 14.402344 C 216.351562 15.453125 218.542969 16.554688 220.710938 17.710938 C 222.875 18.867188 225.011719 20.078125 227.117188 21.339844 C 229.222656 22.601562 231.292969 23.914062 233.335938 25.28125 C 235.375 26.644531 237.382812 28.054688 239.355469 29.519531 C 241.328125 30.980469 243.261719 32.492188 245.160156 34.046875 C 247.054688 35.605469 248.914062 37.207031 250.734375 38.855469 C 252.554688 40.507812 254.332031 42.199219 256.066406 43.933594 C 257.800781 45.667969 259.492188 47.445312 261.144531 49.265625 C 262.792969 51.085938 264.394531 52.945312 265.953125 54.839844 C 267.507812 56.738281 269.019531 58.671875 270.480469 60.644531 C 271.945312 62.617188 273.355469 64.625 274.71875 66.664062 C 276.085938 68.707031 277.398438 70.777344 278.660156 72.882812 C 279.921875 74.988281 281.132812 77.125 282.289062 79.289062 C 283.445312 81.457031 284.546875 83.648438 285.597656 85.867188 C 286.648438 88.085938 287.640625 90.328125 288.582031 92.597656 C 289.519531 94.867188 290.40625 97.15625 291.230469 99.464844 C 292.058594 101.777344 292.828125 104.109375 293.542969 106.457031 C 294.253906 108.804688 294.90625 111.171875 295.503906 113.554688 C 296.101562 115.933594 296.640625 118.328125 297.117188 120.738281 C 297.597656 123.144531 298.015625 125.5625 298.375 127.992188 C 298.738281 130.417969 299.035156 132.855469 299.277344 135.296875 C 299.519531 137.742188 299.699219 140.1875 299.820312 142.640625 C 299.941406 145.089844 300 147.546875 300 150 Z M 300 150 " fill-opacity="1" fill-rule="nonzero"/><path fill="#ffffff" d="M 178.183594 173.554688 C 179.089844 170.390625 178.742188 167.488281 177.214844 165.324219 C 175.8125 163.359375 173.4375 162.21875 170.597656 162.070312 L 116.484375 161.367188 C 116.164062 161.367188 115.839844 161.191406 115.664062 160.929688 C 115.488281 160.664062 115.460938 160.3125 115.546875 159.960938 C 115.722656 159.433594 116.25 159.023438 116.808594 158.996094 L 171.417969 158.292969 C 177.890625 158 184.921875 152.753906 187.382812 146.339844 L 190.488281 138.195312 C 190.632812 137.84375 190.664062 137.492188 190.574219 137.140625 C 187.058594 121.230469 172.851562 109.367188 155.886719 109.367188 C 140.242188 109.367188 126.972656 119.472656 122.226562 133.507812 C 119.148438 131.222656 115.222656 129.992188 111.003906 130.402344 C 103.476562 131.132812 97.46875 137.167969 96.710938 144.695312 C 96.53125 146.628906 96.679688 148.535156 97.117188 150.292969 C 84.84375 150.644531 75.058594 160.664062 75.058594 173.027344 C 75.058594 174.109375 75.148438 175.222656 75.292969 176.308594 C 75.378906 176.835938 75.820312 177.214844 76.347656 177.214844 L 176.21875 177.214844 C 176.777344 177.214844 177.332031 176.804688 177.480469 176.25 Z M 195.410156 138.777344 C 194.941406 138.777344 194.414062 138.777344 193.914062 138.835938 C 193.5625 138.835938 193.269531 139.101562 193.125 139.453125 L 191.015625 146.777344 C 190.105469 149.941406 190.429688 152.839844 191.980469 155.007812 C 193.386719 156.972656 195.761719 158.113281 198.632812 158.261719 L 210.144531 158.964844 C 210.496094 158.964844 210.820312 159.140625 210.964844 159.402344 C 211.140625 159.667969 211.171875 160.078125 211.113281 160.371094 C 210.9375 160.898438 210.410156 161.308594 209.824219 161.335938 L 197.8125 162.039062 C 191.308594 162.332031 184.335938 167.578125 181.84375 173.992188 L 180.964844 176.21875 C 180.789062 176.660156 181.113281 177.097656 181.582031 177.097656 L 222.832031 177.097656 C 223.300781 177.097656 223.738281 176.804688 223.886719 176.308594 C 224.589844 173.757812 224.96875 171.0625 224.96875 168.308594 C 224.96875 152.050781 211.699219 138.777344 195.378906 138.777344 " fill-opacity="1" fill-rule="nonzero"/></svg>