<svg xmlns="http://www.w3.org/2000/svg" xmlns:xlink="http://www.w3.org/1999/xlink" width="400" zoomAndPan="magnify" viewBox="0 0 300 299.999988" height="400" preserveAspectRatio="xMidYMid meet" version="1.0"><path fill="#ffffff" d="M 45 0 L 255 0 C 256.472656 0 257.945312 0.0703125 259.410156 0.214844 C 260.878906 0.359375 262.332031 0.578125 263.777344 0.863281 C 265.222656 1.152344 266.652344 1.511719 268.0625 1.9375 C 269.472656 2.367188 270.859375 2.863281 272.222656 3.425781 C 273.582031 3.988281 274.914062 4.617188 276.210938 5.3125 C 277.511719 6.007812 278.773438 6.765625 280 7.582031 C 281.226562 8.402344 282.410156 9.28125 283.546875 10.214844 C 284.6875 11.148438 285.777344 12.136719 286.820312 13.179688 C 287.863281 14.222656 288.851562 15.3125 289.785156 16.453125 C 290.71875 17.589844 291.597656 18.773438 292.417969 20 C 293.234375 21.226562 293.992188 22.488281 294.6875 23.789062 C 295.382812 25.085938 296.011719 26.417969 296.574219 27.777344 C 297.136719 29.140625 297.632812 30.527344 298.0625 31.9375 C 298.488281 33.347656 298.847656 34.777344 299.136719 36.222656 C 299.421875 37.667969 299.640625 39.121094 299.785156 40.589844 C 299.929688 42.054688 300 43.527344 300 45 L 300 255 C 300 256.472656 299.929688 257.945312 299.785156 259.410156 C 299.640625 260.878906 299.421875 262.332031 299.136719 263.777344 C 298.847656 265.222656 298.488281 266.652344 298.0625 268.0625 C 297.632812 269.472656 297.136719 270.859375 296.574219 272.222656 C 296.011719 273.582031 295.382812 274.914062 294.6875 276.210938 C 293.992188 277.511719 293.234375 278.773438 292.417969 280 C 291.597656 281.226562 290.71875 282.410156 289.785156 283.546875 C 288.851562 284.6875 287.863281 285.777344 286.820312 286.820312 C 285.777344 287.863281 284.6875 288.851562 283.546875 289.785156 C 282.410156 290.71875 281.226562 291.597656 280 292.417969 C 278.773438 293.234375 277.511719 293.992188 276.210938 294.6875 C 274.914062 295.382812 273.582031 296.011719 272.222656 296.574219 C 270.859375 297.136719 269.472656 297.632812 268.0625 298.0625 C 266.652344 298.488281 265.222656 298.847656 263.777344 299.136719 C 262.332031 299.421875 260.878906 299.640625 259.410156 299.785156 C 257.945312 299.929688 256.472656 300 255 300 L 45 300 C 43.527344 300 42.054688 299.929688 40.589844 299.785156 C 39.121094 299.640625 37.667969 299.421875 36.222656 299.136719 C 34.777344 298.847656 33.347656 298.488281 31.9375 298.0625 C 30.527344 297.632812 29.140625 297.136719 27.777344 296.574219 C 26.417969 296.011719 25.085938 295.382812 23.789062 294.6875 C 22.488281 293.992188 21.226562 293.234375 20 292.417969 C 18.773438 291.597656 17.589844 290.71875 16.453125 289.785156 C 15.3125 288.851562 14.222656 287.863281 13.179688 286.820312 C 12.136719 285.777344 11.148438 284.6875 10.214844 283.546875 C 9.28125 282.410156 8.402344 281.226562 7.582031 280 C 6.765625 278.773438 6.007812 277.511719 5.3125 276.210938 C 4.617188 274.914062 3.988281 273.582031 3.425781 272.222656 C 2.863281 270.859375 2.367188 269.472656 1.9375 268.0625 C 1.511719 266.652344 1.152344 265.222656 0.863281 263.777344 C 0.578125 262.332031 0.359375 260.878906 0.214844 259.410156 C 0.0703125 257.945312 0 256.472656 0 255 L 0 45 C 0 43.527344 0.0703125 42.054688 0.214844 40.589844 C 0.359375 39.121094 0.578125 37.667969 0.863281 36.222656 C 1.152344 34.777344 1.511719 33.347656 1.9375 31.9375 C 2.367188 30.527344 2.863281 29.140625 3.425781 27.777344 C 3.988281 26.417969 4.617188 25.085938 5.3125 23.789062 C 6.007812 22.488281 6.765625 21.226562 7.582031 20 C 8.402344 18.773438 9.28125 17.589844 10.214844 16.453125 C 11.148438 15.3125 12.136719 14.222656 13.179688 13.179688 C 14.222656 12.136719 15.3125 11.148438 16.453125 10.214844 C 17.589844 9.28125 18.773438 8.402344 20 7.582031 C 21.226562 6.765625 22.488281 6.007812 23.789062 5.3125 C 25.085938 4.617188 26.417969 3.988281 27.777344 3.425781 C 29.140625 2.863281 30.527344 2.367188 31.9375 1.9375 C 33.347656 1.511719 34.777344 1.152344 36.222656 0.863281 C 37.667969 0.578125 39.121094 0.359375 40.589844 0.214844 C 42.054688 0.0703125 43.527344 0 45 0 Z M 45 0 " fill-opacity="1" fill-rule="nonzero"/><path fill="#d70751" d="M 227.34375 131.835938 C 227.578125 138.28125 225.585938 141.796875 223.828125 147.65625 C 217.96875 149.414062 219.140625 155.859375 218.554688 157.617188 C 215.039062 159.375 198.046875 177.539062 203.90625 167.578125 C 198.046875 171.679688 199.21875 173.4375 189.84375 176.367188 L 189.609375 175.78125 C 166.757812 186.328125 134.53125 165.234375 134.53125 135.9375 C 134.296875 137.695312 133.945312 137.109375 133.359375 137.695312 C 132.773438 104.882812 170.859375 86.132812 193.125 106.054688 C 178.476562 89.0625 147.421875 87.890625 136.875 108.398438 C 131.015625 111.914062 129.84375 123.632812 127.5 125.390625 C 124.570312 176.953125 171.445312 210.351562 215.390625 171.09375 C 220.078125 167.578125 224.765625 161.71875 226.523438 161.132812 C 224.765625 164.472656 226.875 162.304688 225.351562 165.234375 C 228.867188 159.375 225.9375 147.070312 232.382812 155.742188 C 232.851562 144.609375 245.273438 121.757812 238.828125 142.265625 C 240.585938 135.234375 239.414062 121.171875 242.34375 134.0625 C 240.585938 127.03125 244.101562 121.757812 245.273438 117.65625 C 241.757812 108.867188 234.726562 92.460938 242.929688 104.179688 C 225.9375 69.023438 243.515625 83.671875 249.960938 107.109375 C 249.375 100.773438 247.089844 94.6875 245.273438 88.945312 C 246.445312 89.53125 242.929688 76.054688 247.03125 85.429688 C 241.757812 66.09375 224.765625 49.101562 208.945312 39.726562 C 219.492188 50.273438 178.476562 30.9375 168.515625 27.421875 C 175.546875 31.523438 132.773438 31.523438 156.503906 27.890625 C 148.300781 27.304688 137.753906 30.234375 147.714844 24.960938 C 141.386719 25.3125 133.066406 28.476562 135.410156 25.546875 C 123.105469 31.992188 85.605469 57.1875 96.152344 43.710938 C 82.675781 56.015625 74.472656 64.804688 67.441406 81.210938 C 21.152344 146.25 66.269531 244.101562 139.511719 271.640625 C 145.957031 273.984375 156.503906 273.984375 165.292969 273.984375 C 155.332031 271.054688 153.574219 272.8125 143.613281 269.296875 C 136.582031 266.367188 134.824219 262.265625 129.550781 257.578125 C 129.140625 262.265625 115.488281 257.285156 120.175781 251.71875 C 117.246094 251.484375 111.972656 246.445312 110.214844 243.515625 C 104.941406 244.6875 100.253906 235.3125 100.253906 231.796875 C 99.667969 233.554688 78.574219 212.460938 90.878906 218.320312 C 87.949219 215.390625 83.847656 214.804688 87.363281 211.289062 C 84.433594 203.085938 76.816406 199.570312 85.605469 202.5 C 72.714844 193.710938 65.097656 179.648438 70.957031 179.0625 C 68.027344 175.546875 68.027344 172.617188 68.613281 167.929688 C 58.652344 146.25 69.199219 119.296875 76.816406 101.132812 C 64.511719 102.304688 99.082031 71.835938 108.457031 71.835938 C 107.285156 67.148438 114.902344 61.289062 124.277344 58.359375 C 123.691406 57.773438 157.089844 43.125 143.027344 53.671875 C 182.285156 40.78125 225.644531 74.765625 227.988281 109.921875 C 230.332031 110.507812 227.695312 136.289062 227.402344 138.046875 " fill-opacity="1" fill-rule="nonzero"/></svg>