<svg xmlns="http://www.w3.org/2000/svg" xmlns:xlink="http://www.w3.org/1999/xlink" width="400" zoomAndPan="magnify" viewBox="0 0 300 299.999988" height="400" preserveAspectRatio="xMidYMid meet" version="1.0"><defs><clipPath id="ee02da5783"><path d="M 0 41.601562 L 300 41.601562 L 300 258.351562 L 0 258.351562 Z M 0 41.601562 " clip-rule="nonzero"/></clipPath></defs><g clip-path="url(#ee02da5783)"><path fill="#2396ed" d="M 293.808594 124.199219 C 287.050781 119.511719 271.570312 117.753906 259.46875 120.097656 C 258.058594 108.382812 251.585938 98.128906 240.328125 89.050781 L 233.851562 84.363281 L 229.347656 91.101562 C 223.71875 99.886719 220.90625 112.1875 221.75 123.90625 C 222.03125 128.003906 223.4375 135.328125 227.660156 141.769531 C 223.71875 144.113281 215.558594 147.042969 204.859375 147.042969 L 1.351562 147.042969 L 0.789062 149.386719 C -1.179688 161.101562 -1.179688 197.714844 21.902344 225.832031 C 39.351562 247.210938 65.25 258.050781 99.308594 258.050781 C 173.054688 258.050781 227.660156 222.609375 253.273438 158.464844 C 263.40625 158.757812 285.082031 158.464844 296.058594 136.5 C 296.339844 135.914062 296.902344 134.742188 298.875 130.347656 L 300 128.003906 Z M 164.046875 41.601562 L 133.085938 41.601562 L 133.085938 70.890625 L 164.046875 70.890625 Z M 164.046875 76.75 L 133.085938 76.75 L 133.085938 106.039062 L 164.046875 106.039062 Z M 127.453125 76.75 L 96.492188 76.75 L 96.492188 106.039062 L 127.453125 106.039062 Z M 90.863281 76.75 L 59.902344 76.75 L 59.902344 106.039062 L 90.863281 106.039062 Z M 54.269531 111.894531 L 23.308594 111.894531 L 23.308594 141.183594 L 54.269531 141.183594 Z M 90.863281 111.894531 L 59.902344 111.894531 L 59.902344 141.183594 L 90.863281 141.183594 Z M 127.453125 111.894531 L 96.492188 111.894531 L 96.492188 141.183594 L 127.453125 141.183594 Z M 164.046875 111.894531 L 133.085938 111.894531 L 133.085938 141.183594 L 164.046875 141.183594 Z M 200.640625 111.894531 L 169.675781 111.894531 L 169.675781 141.183594 L 200.640625 141.183594 Z M 200.640625 111.894531 " fill-opacity="1" fill-rule="nonzero"/></g></svg>