<svg xmlns="http://www.w3.org/2000/svg" xmlns:xlink="http://www.w3.org/1999/xlink" width="400" zoomAndPan="magnify" viewBox="0 0 300 299.999988" height="400" preserveAspectRatio="xMidYMid meet" version="1.0"><path fill="#ffc24a" d="M 54.375 230.625 L 55.96875 228.402344 L 131.15625 85.773438 L 131.316406 84.261719 L 98.175781 22.011719 C 97.871094 21.441406 97.488281 20.933594 97.023438 20.484375 C 96.5625 20.039062 96.039062 19.671875 95.460938 19.386719 C 94.882812 19.101562 94.273438 18.914062 93.636719 18.820312 C 92.996094 18.726562 92.359375 18.734375 91.726562 18.839844 C 91.089844 18.949219 90.484375 19.152344 89.914062 19.449219 C 89.339844 19.746094 88.828125 20.125 88.375 20.582031 C 87.921875 21.039062 87.546875 21.558594 87.257812 22.132812 C 86.96875 22.710938 86.773438 23.316406 86.671875 23.953125 Z M 54.375 230.625 " fill-opacity="1" fill-rule="nonzero"/><path fill="#ffa712" d="M 55.3125 228.9375 L 56.511719 226.59375 L 130.921875 85.445312 L 97.867188 22.949219 C 97.59375 22.40625 97.242188 21.921875 96.8125 21.492188 C 96.382812 21.0625 95.894531 20.710938 95.351562 20.4375 C 94.804688 20.167969 94.234375 19.988281 93.632812 19.902344 C 93.03125 19.816406 92.429688 19.828125 91.832031 19.9375 C 91.234375 20.046875 90.667969 20.246094 90.132812 20.539062 C 89.601562 20.832031 89.128906 21.199219 88.714844 21.644531 C 88.300781 22.089844 87.96875 22.589844 87.71875 23.144531 C 87.464844 23.699219 87.308594 24.277344 87.242188 24.882812 Z M 55.3125 228.9375 " fill-opacity="1" fill-rule="nonzero"/><path fill="#f4bd62" d="M 155.476562 131.34375 L 180.148438 106.03125 L 155.464844 58.960938 C 155.195312 58.453125 154.859375 57.992188 154.464844 57.574219 C 154.066406 57.160156 153.621094 56.804688 153.128906 56.507812 C 152.636719 56.214844 152.109375 55.988281 151.558594 55.835938 C 151.003906 55.683594 150.4375 55.605469 149.863281 55.605469 C 149.289062 55.605469 148.726562 55.683594 148.171875 55.835938 C 147.617188 55.988281 147.09375 56.214844 146.601562 56.507812 C 146.105469 56.804688 145.660156 57.160156 145.265625 57.574219 C 144.867188 57.992188 144.535156 58.453125 144.261719 58.960938 L 131.070312 84.101562 L 131.070312 86.25 Z M 155.476562 131.34375 " fill-opacity="1" fill-rule="nonzero"/><path fill="#ffa50e" d="M 155.035156 130.3125 L 179.023438 105.75 L 155.035156 60 C 154.839844 59.503906 154.574219 59.046875 154.246094 58.628906 C 153.917969 58.210938 153.535156 57.84375 153.101562 57.535156 C 152.667969 57.226562 152.199219 56.988281 151.695312 56.8125 C 151.191406 56.640625 150.675781 56.542969 150.144531 56.519531 C 149.609375 56.496094 149.085938 56.546875 148.570312 56.675781 C 148.050781 56.804688 147.5625 57.003906 147.105469 57.273438 C 146.644531 57.542969 146.234375 57.871094 145.871094 58.261719 C 145.507812 58.652344 145.203125 59.082031 144.964844 59.558594 L 131.710938 85.144531 L 131.316406 86.445312 Z M 155.035156 130.3125 " fill-opacity="1" fill-rule="nonzero"/><path fill="#f6820c" d="M 54.394531 230.632812 L 55.117188 229.902344 L 57.730469 228.84375 L 153.917969 133.011719 L 155.136719 129.695312 L 131.148438 83.960938 Z M 54.394531 230.632812 " fill-opacity="1" fill-rule="nonzero"/><path fill="#fde068" d="M 158.550781 278.960938 L 245.625 230.410156 L 220.742188 77.304688 C 220.65625 76.765625 220.492188 76.25 220.261719 75.753906 C 220.03125 75.257812 219.734375 74.804688 219.378906 74.390625 C 219.023438 73.976562 218.613281 73.617188 218.160156 73.316406 C 217.703125 73.011719 217.214844 72.777344 216.695312 72.609375 C 216.171875 72.441406 215.640625 72.347656 215.09375 72.328125 C 214.546875 72.308594 214.007812 72.359375 213.476562 72.488281 C 212.945312 72.617188 212.441406 72.816406 211.960938 73.082031 C 211.484375 73.347656 211.054688 73.675781 210.664062 74.0625 L 54.375 230.625 L 140.933594 278.953125 C 142.28125 279.703125 143.699219 280.273438 145.191406 280.660156 C 146.679688 281.050781 148.195312 281.242188 149.738281 281.242188 C 151.277344 281.242188 152.792969 281.050781 154.285156 280.660156 C 155.777344 280.273438 157.195312 279.703125 158.539062 278.953125 " fill-opacity="1" fill-rule="nonzero"/><path fill="#fcca3f" d="M 244.828125 230.007812 L 220.152344 78.054688 C 220.132812 77.539062 220.035156 77.039062 219.863281 76.550781 C 219.695312 76.0625 219.457031 75.609375 219.152344 75.195312 C 218.847656 74.777344 218.488281 74.414062 218.074219 74.101562 C 217.660156 73.792969 217.210938 73.546875 216.726562 73.371094 C 216.242188 73.195312 215.742188 73.089844 215.226562 73.0625 C 214.710938 73.035156 214.199219 73.082031 213.699219 73.203125 C 213.195312 73.324219 212.722656 73.519531 212.277344 73.78125 C 211.832031 74.042969 211.4375 74.367188 211.085938 74.746094 L 55.3125 230.335938 L 140.914062 278.148438 C 142.25 278.890625 143.65625 279.457031 145.136719 279.839844 C 146.617188 280.226562 148.121094 280.417969 149.648438 280.417969 C 151.175781 280.417969 152.679688 280.226562 154.160156 279.839844 C 155.640625 279.457031 157.046875 278.890625 158.382812 278.148438 Z M 244.828125 230.007812 " fill-opacity="1" fill-rule="nonzero"/><path fill="#eeab37" d="M 158.550781 277.5 C 157.203125 278.25 155.785156 278.820312 154.296875 279.207031 C 152.804688 279.597656 151.289062 279.789062 149.746094 279.789062 C 148.207031 279.789062 146.691406 279.597656 145.199219 279.207031 C 143.707031 278.820312 142.289062 278.25 140.945312 277.5 L 55.085938 229.894531 L 54.375 230.625 L 140.933594 278.953125 C 142.28125 279.703125 143.699219 280.273438 145.1875 280.660156 C 146.679688 281.050781 148.195312 281.242188 149.738281 281.242188 C 151.277344 281.242188 152.792969 281.050781 154.285156 280.660156 C 155.777344 280.273438 157.195312 279.703125 158.539062 278.953125 L 245.625 230.410156 L 245.410156 229.097656 Z M 158.550781 277.5 " fill-opacity="1" fill-rule="nonzero"/></svg>