<svg xmlns="http://www.w3.org/2000/svg" xmlns:xlink="http://www.w3.org/1999/xlink" width="400" zoomAndPan="magnify" viewBox="0 0 300 299.999988" height="400" preserveAspectRatio="xMidYMid meet" version="1.0"><defs><clipPath id="c0314e07bb"><path d="M 0 4.101562 L 300 4.101562 L 300 295.851562 L 0 295.851562 Z M 0 4.101562 " clip-rule="nonzero"/></clipPath></defs><path fill="#326de6" d="M 96.195312 291.085938 C 89.226562 291.085938 82.644531 287.992188 78.195312 282.378906 L 10.453125 198.199219 C 6 192.585938 4.257812 185.425781 6 178.460938 L 30.195312 73.378906 C 31.742188 66.414062 36.386719 60.800781 42.773438 57.707031 L 140.710938 10.875 C 143.804688 9.328125 147.289062 8.550781 150.773438 8.550781 C 154.257812 8.550781 157.742188 9.328125 160.839844 10.875 L 258.773438 57.511719 C 265.160156 60.609375 269.804688 66.21875 271.355469 73.1875 L 295.546875 178.265625 C 297.097656 185.234375 295.546875 192.394531 291.097656 198.007812 L 223.355469 282.1875 C 218.902344 287.605469 212.324219 290.894531 205.355469 290.894531 Z M 96.195312 291.085938 " fill-opacity="1" fill-rule="nonzero"/><g clip-path="url(#c0314e07bb)"><path fill="#ffffff" d="M 150.582031 13.390625 C 153.289062 13.390625 156 13.972656 158.515625 15.132812 L 256.453125 61.769531 C 261.484375 64.285156 265.355469 68.929688 266.515625 74.347656 L 290.710938 179.429688 C 292.066406 185.039062 290.710938 190.847656 287.03125 195.296875 L 219.289062 279.476562 C 215.804688 283.925781 210.386719 286.441406 204.773438 286.441406 L 96.195312 286.441406 C 90.582031 286.441406 85.160156 283.925781 81.675781 279.476562 L 13.933594 195.296875 C 10.453125 190.847656 9.097656 185.039062 10.257812 179.429688 L 34.453125 74.347656 C 35.804688 68.738281 39.484375 64.09375 44.515625 61.769531 L 142.453125 14.9375 C 144.96875 13.972656 147.871094 13.390625 150.582031 13.390625 Z M 150.582031 4.296875 C 146.515625 4.296875 142.453125 5.261719 138.582031 7.003906 L 40.644531 53.835938 C 32.902344 57.511719 27.484375 64.285156 25.546875 72.605469 L 1.355469 177.6875 C -0.582031 186.007812 1.355469 194.523438 6.773438 201.296875 L 74.515625 285.476562 C 79.742188 292.054688 87.675781 295.730469 96 295.730469 L 204.582031 295.730469 C 212.902344 295.730469 220.839844 292.054688 226.066406 285.476562 L 293.804688 201.296875 C 299.226562 194.714844 301.160156 186.007812 299.226562 177.6875 L 275.03125 72.605469 C 273.097656 64.285156 267.675781 57.511719 259.933594 53.835938 L 162.386719 7.003906 C 158.710938 5.261719 154.644531 4.296875 150.582031 4.296875 Z M 150.582031 4.296875 " fill-opacity="1" fill-rule="nonzero"/></g><path fill="#ffffff" d="M 248.710938 171.105469 C 248.515625 171.105469 248.515625 171.105469 248.710938 171.105469 L 248.515625 171.105469 C 248.324219 171.105469 248.128906 171.105469 248.128906 170.914062 C 247.742188 170.914062 247.355469 170.71875 246.96875 170.71875 C 245.613281 170.527344 244.453125 170.332031 243.289062 170.332031 C 242.710938 170.332031 242.128906 170.332031 241.355469 170.140625 L 241.160156 170.140625 C 237.097656 169.753906 233.804688 169.367188 230.710938 168.398438 C 229.355469 167.816406 228.96875 167.042969 228.582031 166.269531 C 228.582031 166.074219 228.386719 166.074219 228.386719 165.882812 L 225.871094 165.109375 C 227.03125 156.207031 226.644531 146.917969 224.515625 137.820312 C 222.386719 128.726562 218.710938 120.210938 213.675781 112.472656 L 215.613281 110.730469 L 215.613281 110.34375 C 215.613281 109.375 215.804688 108.40625 216.582031 107.441406 C 218.902344 105.3125 221.804688 103.570312 225.289062 101.441406 C 225.871094 101.054688 226.453125 100.859375 227.03125 100.472656 C 228.195312 99.894531 229.160156 99.3125 230.324219 98.539062 C 230.515625 98.34375 230.902344 98.152344 231.289062 97.765625 C 231.484375 97.570312 231.675781 97.570312 231.675781 97.375 C 234.386719 95.054688 234.96875 91.183594 233.03125 88.667969 C 232.066406 87.3125 230.324219 86.539062 228.582031 86.539062 C 227.03125 86.539062 225.675781 87.121094 224.324219 88.089844 C 224.128906 88.28125 224.128906 88.28125 223.933594 88.476562 C 223.546875 88.667969 223.355469 89.054688 222.96875 89.25 C 222 90.214844 221.226562 90.992188 220.453125 91.957031 C 220.066406 92.34375 219.675781 92.925781 219.097656 93.3125 C 216.386719 96.214844 213.871094 98.539062 211.355469 100.28125 C 210.773438 100.667969 210.195312 100.859375 209.613281 100.859375 C 209.226562 100.859375 208.839844 100.859375 208.453125 100.667969 L 208.066406 100.667969 L 205.742188 102.214844 C 203.226562 99.503906 200.515625 97.183594 197.804688 94.859375 C 186.195312 85.765625 172.066406 80.152344 157.355469 78.800781 L 157.160156 76.285156 C 156.96875 76.089844 156.96875 76.089844 156.773438 75.894531 C 156.195312 75.316406 155.417969 74.734375 155.226562 73.378906 C 155.03125 70.285156 155.417969 66.800781 155.804688 62.929688 L 155.804688 62.738281 C 155.804688 62.15625 156 61.382812 156.195312 60.800781 C 156.386719 59.640625 156.582031 58.480469 156.773438 57.125 L 156.773438 55.382812 C 156.773438 51.898438 154.066406 48.996094 150.773438 48.996094 C 149.226562 48.996094 147.675781 49.773438 146.515625 50.933594 C 145.355469 52.09375 144.773438 53.640625 144.773438 55.382812 L 144.773438 56.933594 C 144.773438 58.285156 144.96875 59.449219 145.355469 60.609375 C 145.546875 61.1875 145.546875 61.769531 145.742188 62.542969 L 145.742188 62.738281 C 146.128906 66.609375 146.710938 70.089844 146.324219 73.1875 C 146.128906 74.542969 145.355469 75.121094 144.773438 75.703125 C 144.582031 75.894531 144.582031 75.894531 144.386719 76.089844 L 144.195312 78.605469 C 140.710938 78.992188 137.226562 79.378906 133.742188 80.152344 C 118.839844 83.445312 105.675781 90.992188 95.417969 101.828125 L 93.484375 100.472656 L 93.097656 100.472656 C 92.710938 100.472656 92.324219 100.667969 91.933594 100.667969 C 91.355469 100.667969 90.773438 100.472656 90.195312 100.085938 C 87.675781 98.34375 85.160156 95.828125 82.453125 92.925781 C 82.066406 92.539062 81.675781 91.957031 81.097656 91.570312 C 80.324219 90.605469 79.546875 89.828125 78.582031 88.863281 C 78.386719 88.667969 78 88.476562 77.613281 88.089844 C 77.417969 87.894531 77.226562 87.894531 77.226562 87.699219 C 76.066406 86.734375 74.515625 86.152344 72.96875 86.152344 C 71.226562 86.152344 69.484375 86.925781 68.515625 88.28125 C 66.582031 90.796875 67.160156 94.667969 69.871094 96.988281 C 70.066406 96.988281 70.066406 97.183594 70.257812 97.183594 C 70.644531 97.375 70.839844 97.765625 71.226562 97.957031 C 72.386719 98.730469 73.355469 99.3125 74.515625 99.894531 C 75.097656 100.085938 75.675781 100.472656 76.257812 100.859375 C 79.742188 102.988281 82.644531 104.730469 84.96875 106.859375 C 85.933594 107.828125 85.933594 108.792969 85.933594 109.761719 L 85.933594 110.148438 L 87.871094 111.890625 C 87.484375 112.472656 87.097656 112.859375 86.902344 113.4375 C 77.226562 128.726562 73.546875 146.722656 76.066406 164.527344 L 73.546875 165.300781 C 73.546875 165.496094 73.355469 165.496094 73.355469 165.6875 C 72.96875 166.460938 72.386719 167.238281 71.226562 167.816406 C 68.324219 168.785156 64.839844 169.171875 60.773438 169.558594 L 60.582031 169.558594 C 60 169.558594 59.226562 169.558594 58.644531 169.753906 C 57.484375 169.753906 56.324219 169.945312 54.96875 170.140625 C 54.582031 170.140625 54.195312 170.332031 53.804688 170.332031 C 53.613281 170.332031 53.417969 170.332031 53.226562 170.527344 C 49.742188 171.300781 47.613281 174.589844 48.195312 177.6875 C 48.773438 180.394531 51.289062 182.136719 54.386719 182.136719 C 54.96875 182.136719 55.355469 182.136719 55.933594 181.945312 C 56.128906 181.945312 56.324219 181.945312 56.324219 181.75 C 56.710938 181.75 57.097656 181.558594 57.484375 181.558594 C 58.839844 181.167969 59.804688 180.78125 60.96875 180.203125 C 61.546875 180.007812 62.128906 179.621094 62.710938 179.429688 L 62.902344 179.429688 C 66.582031 178.074219 69.871094 176.914062 72.96875 176.527344 L 73.355469 176.527344 C 74.515625 176.527344 75.289062 177.105469 75.871094 177.492188 C 76.066406 177.492188 76.066406 177.6875 76.257812 177.6875 L 78.96875 177.300781 C 83.613281 191.621094 92.515625 204.390625 104.324219 213.679688 C 107.03125 215.808594 109.742188 217.550781 112.644531 219.292969 L 111.484375 221.808594 C 111.484375 222.003906 111.675781 222.003906 111.675781 222.195312 C 112.066406 222.96875 112.453125 223.9375 112.066406 225.292969 C 110.902344 228.195312 109.160156 231.097656 107.03125 234.386719 L 107.03125 234.582031 C 106.644531 235.160156 106.257812 235.546875 105.871094 236.128906 C 105.097656 237.097656 104.515625 238.0625 103.742188 239.226562 C 103.546875 239.417969 103.355469 239.804688 103.160156 240.191406 C 103.160156 240.386719 102.96875 240.578125 102.96875 240.578125 C 101.417969 243.871094 102.582031 247.546875 105.484375 248.902344 C 106.257812 249.289062 107.03125 249.480469 107.804688 249.480469 C 110.128906 249.480469 112.453125 247.933594 113.613281 245.804688 C 113.613281 245.609375 113.804688 245.417969 113.804688 245.417969 C 114 245.03125 114.195312 244.644531 114.386719 244.449219 C 114.96875 243.09375 115.160156 242.128906 115.546875 240.964844 C 115.742188 240.386719 115.933594 239.804688 116.128906 239.226562 C 117.484375 235.355469 118.453125 232.257812 120.195312 229.550781 C 120.96875 228.386719 121.933594 228.195312 122.710938 227.808594 C 122.902344 227.808594 122.902344 227.808594 123.097656 227.613281 L 124.453125 225.097656 C 132.96875 228.386719 142.257812 230.128906 151.546875 230.128906 C 157.160156 230.128906 162.96875 229.550781 168.386719 228.195312 C 171.871094 227.421875 175.160156 226.453125 178.453125 225.292969 L 179.613281 227.421875 C 179.804688 227.421875 179.804688 227.421875 180 227.613281 C 180.96875 227.808594 181.742188 228.195312 182.515625 229.355469 C 184.066406 232.066406 185.226562 235.355469 186.582031 239.03125 L 186.582031 239.226562 C 186.773438 239.804688 186.96875 240.386719 187.160156 240.964844 C 187.546875 242.128906 187.742188 243.289062 188.324219 244.449219 C 188.515625 244.835938 188.710938 245.03125 188.902344 245.417969 C 188.902344 245.609375 189.097656 245.804688 189.097656 245.804688 C 190.257812 248.125 192.582031 249.480469 194.902344 249.480469 C 195.675781 249.480469 196.453125 249.289062 197.226562 248.902344 C 198.582031 248.125 199.742188 246.964844 200.128906 245.417969 C 200.515625 243.871094 200.515625 242.128906 199.742188 240.578125 C 199.742188 240.386719 199.546875 240.386719 199.546875 240.191406 C 199.355469 239.804688 199.160156 239.417969 198.96875 239.226562 C 198.386719 238.0625 197.613281 237.097656 196.839844 236.128906 C 196.453125 235.546875 196.066406 235.160156 195.675781 234.582031 L 195.675781 234.386719 C 193.546875 231.097656 191.613281 228.195312 190.644531 225.292969 C 190.257812 223.9375 190.644531 223.164062 190.839844 222.195312 C 190.839844 222.003906 191.03125 222.003906 191.03125 221.808594 L 190.066406 219.484375 C 200.324219 213.488281 209.03125 204.972656 215.613281 194.523438 C 219.097656 189.105469 221.804688 183.105469 223.742188 177.105469 L 226.066406 177.492188 C 226.257812 177.492188 226.257812 177.300781 226.453125 177.300781 C 227.226562 176.914062 227.804688 176.332031 228.96875 176.332031 L 229.355469 176.332031 C 232.453125 176.71875 235.742188 177.878906 239.417969 179.234375 L 239.613281 179.234375 C 240.195312 179.429688 240.773438 179.816406 241.355469 180.007812 C 242.515625 180.589844 243.484375 180.976562 244.839844 181.363281 C 245.226562 181.363281 245.613281 181.558594 246 181.558594 C 246.195312 181.558594 246.386719 181.558594 246.582031 181.75 C 247.160156 181.945312 247.546875 181.945312 248.128906 181.945312 C 251.03125 181.945312 253.546875 180.007812 254.324219 177.492188 C 254.324219 175.171875 252.195312 172.074219 248.710938 171.105469 Z M 159.097656 161.625 L 150.582031 165.6875 L 142.066406 161.625 L 139.933594 152.53125 L 145.742188 145.175781 L 155.226562 145.175781 L 161.03125 152.53125 Z M 209.613281 141.5 C 211.160156 148.078125 211.546875 154.65625 210.96875 161.042969 L 181.355469 152.53125 C 178.644531 151.753906 177.097656 149.046875 177.675781 146.335938 C 177.871094 145.5625 178.257812 144.789062 178.839844 144.207031 L 202.257812 123.113281 C 205.546875 128.53125 208.066406 134.726562 209.613281 141.5 Z M 192.96875 111.503906 L 167.613281 129.5 C 165.484375 130.855469 162.582031 130.46875 160.839844 128.339844 C 160.257812 127.757812 160.066406 126.984375 159.871094 126.210938 L 158.128906 94.667969 C 171.484375 96.214844 183.675781 102.214844 192.96875 111.503906 Z M 136.839844 95.636719 C 138.96875 95.25 140.902344 94.859375 143.03125 94.472656 L 141.289062 125.4375 C 141.097656 128.144531 138.96875 130.46875 136.066406 130.46875 C 135.289062 130.46875 134.324219 130.273438 133.742188 129.886719 L 108 111.503906 C 115.933594 103.570312 125.804688 98.152344 136.839844 95.636719 Z M 98.710938 123.113281 L 121.742188 143.628906 C 123.871094 145.371094 124.066406 148.660156 122.324219 150.789062 C 121.742188 151.5625 120.96875 152.140625 120 152.335938 L 90 161.042969 C 88.839844 147.886719 91.742188 134.53125 98.710938 123.113281 Z M 93.484375 175.558594 L 124.257812 170.332031 C 126.773438 170.140625 129.097656 171.882812 129.675781 174.398438 C 129.871094 175.558594 129.871094 176.527344 129.484375 177.492188 L 117.675781 205.941406 C 106.839844 198.972656 98.128906 188.328125 93.484375 175.558594 Z M 164.128906 214.066406 C 159.675781 215.035156 155.226562 215.617188 150.582031 215.617188 C 143.804688 215.617188 137.226562 214.453125 131.03125 212.519531 L 146.324219 184.847656 C 147.871094 183.105469 150.386719 182.332031 152.515625 183.492188 C 153.484375 184.074219 154.257812 184.847656 154.839844 185.621094 L 169.742188 212.519531 C 168 213.101562 166.066406 213.488281 164.128906 214.066406 Z M 201.871094 187.167969 C 197.03125 194.910156 190.644531 201.101562 183.289062 205.941406 L 171.097656 176.71875 C 170.515625 174.398438 171.484375 171.882812 173.804688 170.71875 C 174.582031 170.332031 175.546875 170.140625 176.515625 170.140625 L 207.484375 175.363281 C 206.324219 179.621094 204.386719 183.492188 201.871094 187.167969 Z M 201.871094 187.167969 " fill-opacity="1" fill-rule="nonzero"/></svg>