<svg xmlns="http://www.w3.org/2000/svg" xmlns:xlink="http://www.w3.org/1999/xlink" width="400" zoomAndPan="magnify" viewBox="0 0 300 299.999988" height="400" preserveAspectRatio="xMidYMid meet" version="1.0"><path fill="#212121" d="M 64.3125 76.898438 C 66.898438 76.898438 69 74.800781 69 72.210938 C 69 69.621094 66.898438 67.523438 64.3125 67.523438 C 61.722656 67.523438 59.625 69.621094 59.625 72.210938 C 59.625 74.800781 61.722656 76.898438 64.3125 76.898438 Z M 64.3125 76.898438 " fill-opacity="1" fill-rule="nonzero"/><path fill="#212121" d="M 279.785156 202.101562 L 280.605469 202.894531 C 287.121094 209.191406 290.683594 217.882812 290.542969 226.777344 L 290.542969 278.25 C 290.542969 290.199219 280.835938 299.90625 268.886719 299.90625 L 256.042969 299.90625 C 244.09375 299.90625 234.386719 290.199219 234.386719 278.25 L 234.386719 258.082031 L 228.347656 254.378906 L 211.707031 284.582031 L 211.507812 284.847656 C 209.007812 288.175781 205.132812 290.332031 200.730469 290.332031 L 191.074219 290.332031 C 185.222656 290.332031 182.070312 284.289062 184.097656 279.5 L 199.804688 236.882812 L 199.941406 236.625 L 199.949219 236.605469 C 197.265625 234.539062 194.796875 232.246094 192.597656 229.738281 C 185.320312 232.761719 177.445312 234.375 169.417969 234.375 L 164.246094 234.375 L 176.222656 280.800781 L 176.242188 280.875 C 176.597656 282.472656 176.582031 284.480469 175.75 286.328125 C 174.804688 288.429688 172.699219 290.332031 169.601562 290.332031 L 169.570312 290.332031 L 156.460938 290.234375 C 155.269531 290.230469 153.644531 290.058594 152.089844 289.253906 C 150.367188 288.367188 148.90625 286.777344 148.367188 284.503906 L 140.199219 253.488281 C 140.113281 253.136719 139.855469 252.8125 139.625 252.671875 L 139.605469 252.660156 C 139.148438 252.382812 138.703125 252.09375 138.265625 251.796875 C 136.6875 256.460938 134.335938 260.867188 131.261719 264.820312 L 131.261719 278.34375 C 131.261719 290.679688 121.164062 300 109.511719 300 L 96.667969 300 C 85.183594 300 74.792969 290.644531 75.105469 278.015625 L 75.105469 223.78125 C 58.136719 212.496094 46.886719 193.210938 46.886719 171.1875 L 46.886719 117.480469 L 40.042969 117.480469 C 29.339844 117.480469 21.460938 111.46875 16.984375 105.871094 C 12.476562 100.234375 9.386719 92.671875 9.386719 84.667969 C 9.386719 79.871094 10.539062 74.835938 12.230469 70.59375 C 13.703125 66.898438 17.007812 60.148438 23.863281 55.886719 L 23.894531 55.867188 L 53.03125 37.84375 C 54.328125 37.019531 55.632812 36.253906 56.921875 35.550781 L 54.414062 27.882812 C 49.808594 14.222656 59.882812 0 74.449219 0 C 91.476562 0 106.359375 10.902344 111.84375 26.644531 L 111.890625 26.785156 L 143.222656 121.5 L 217.980469 121.5 C 228.683594 121.5 238.664062 124.625 247.054688 130.007812 C 250.433594 125.097656 256.097656 121.875 262.511719 121.875 C 272.867188 121.875 281.261719 130.269531 281.261719 140.625 C 281.261719 148.671875 276.191406 155.53125 269.078125 158.191406 C 270.898438 163.597656 271.886719 169.386719 271.886719 175.40625 L 271.886719 196.128906 Z M 255.667969 207.375 C 254.074219 205.78125 253.136719 203.53125 253.136719 201.1875 L 253.136719 175.40625 C 253.136719 156 237.386719 140.25 217.980469 140.25 L 141.386719 140.25 C 135.199219 140.25 129.480469 136.6875 126.667969 131.15625 L 94.136719 32.8125 C 93.230469 30.214844 91.84375 27.875 90.097656 25.878906 C 87.386719 22.785156 83.804688 20.527344 79.792969 19.453125 L 79.472656 19.371094 C 77.855469 18.964844 76.171875 18.75 74.449219 18.75 C 72.761719 18.75 71.636719 20.34375 72.199219 21.9375 L 80.355469 46.875 C 80.070312 46.875 79.636719 46.925781 79.085938 47.027344 C 77.816406 47.257812 75.90625 47.765625 73.664062 48.558594 C 84.273438 52.445312 91.886719 62.628906 91.886719 74.53125 L 91.886719 83.90625 C 91.886719 94.464844 83.339844 103.125 72.761719 103.125 L 65.636719 103.125 L 65.636719 171.1875 C 65.636719 190.03125 77.355469 206.0625 93.855469 212.53125 L 93.855469 278.34375 C 93.761719 279.9375 95.074219 281.25 96.667969 281.25 L 109.511719 281.25 C 110.792969 281.25 111.859375 280.492188 112.296875 279.429688 C 112.433594 279.09375 112.511719 278.726562 112.511719 278.34375 L 112.511719 259.96875 C 112.511719 259.617188 112.542969 259.269531 112.605469 258.9375 C 112.820312 257.765625 113.394531 256.71875 114.199219 255.84375 C 119.167969 250.96875 121.886719 244.3125 121.886719 237.375 L 121.886719 215.625 L 169.417969 215.625 C 174.246094 215.625 178.996094 214.777344 183.46875 213.171875 C 190.015625 210.824219 195.953125 206.855469 200.636719 201.5625 C 200.636719 208.582031 203.492188 214.652344 208.921875 219.675781 C 210.304688 220.957031 211.855469 222.167969 213.574219 223.3125 L 250.699219 246.09375 C 251.921875 246.933594 252.769531 248.273438 253.042969 249.753906 C 253.101562 250.089844 253.136719 250.433594 253.136719 250.78125 L 253.136719 278.25 C 253.136719 279.84375 254.449219 281.15625 256.042969 281.15625 L 268.886719 281.15625 C 270.480469 281.15625 271.792969 279.84375 271.792969 278.25 L 271.792969 226.59375 C 271.886719 222.84375 270.386719 219.09375 267.574219 216.375 Z M 28.402344 84.375 C 29.582031 89.742188 34.34375 93.75 40.042969 93.75 L 72.761719 93.75 C 78.105469 93.75 82.511719 89.34375 82.511719 83.90625 L 82.511719 74.53125 C 82.511719 64.5 74.261719 56.25 64.136719 56.25 C 61.039062 56.25 57.941406 57.039062 55.207031 58.542969 L 33.761719 71.8125 C 32.660156 72.496094 31.691406 73.636719 30.882812 75 L 32.8125 75 C 35.4375 75 37.5 77.0625 37.5 79.6875 C 37.5 82.3125 35.4375 84.375 32.8125 84.375 Z M 28.402344 84.375 " fill-opacity="1" fill-rule="nonzero"/></svg>