<svg xmlns="http://www.w3.org/2000/svg" xmlns:xlink="http://www.w3.org/1999/xlink" width="400" zoomAndPan="magnify" viewBox="0 0 300 299.999988" height="400" preserveAspectRatio="xMidYMid meet" version="1.0"><defs><clipPath id="5cefc8310c"><path d="M 4.546875 0 L 295.546875 0 L 295.546875 300 L 4.546875 300 Z M 4.546875 0 " clip-rule="nonzero"/></clipPath></defs><g clip-path="url(#5cefc8310c)"><path fill="#000000" d="M 294.417969 179.640625 C 292.671875 174.359375 288.101562 170.679688 282.191406 169.796875 C 279.402344 169.382812 276.210938 169.558594 272.433594 170.335938 C 265.851562 171.695312 260.96875 172.210938 257.402344 172.3125 C 270.855469 149.601562 281.796875 123.703125 288.097656 99.324219 C 298.28125 59.90625 292.839844 41.949219 286.480469 33.828125 C 269.648438 12.328125 245.089844 0.777344 215.464844 0.425781 C 199.664062 0.230469 185.789062 3.351562 178.550781 5.59375 C 171.8125 4.40625 164.566406 3.742188 156.964844 3.617188 C 142.714844 3.390625 130.121094 6.496094 119.363281 12.878906 C 113.40625 10.867188 103.847656 8.027344 92.808594 6.214844 C 66.839844 1.953125 45.914062 5.277344 30.609375 16.085938 C 12.074219 29.175781 3.480469 51.914062 5.070312 83.675781 C 5.574219 93.761719 11.21875 124.441406 20.101562 153.539062 C 25.207031 170.261719 30.652344 184.152344 36.285156 194.820312 C 44.273438 209.953125 52.820312 218.863281 62.414062 222.0625 C 67.792969 223.855469 77.5625 225.109375 87.839844 216.550781 C 89.144531 218.128906 90.882812 219.695312 93.1875 221.152344 C 96.117188 223 99.699219 224.507812 103.277344 225.402344 C 116.167969 228.625 128.242188 227.816406 138.546875 223.300781 C 138.609375 225.132812 138.65625 226.882812 138.699219 228.394531 C 138.769531 230.847656 138.835938 233.25 138.925781 235.496094 C 139.535156 250.695312 140.570312 262.511719 143.632812 270.78125 C 143.800781 271.234375 144.027344 271.925781 144.269531 272.660156 C 145.796875 277.34375 148.351562 285.175781 154.855469 291.3125 C 161.59375 297.667969 169.738281 299.617188 177.199219 299.617188 C 180.941406 299.617188 184.511719 299.125 187.644531 298.453125 C 198.808594 296.0625 211.484375 292.417969 220.65625 279.363281 C 229.328125 267.023438 233.542969 248.4375 234.304688 219.148438 C 234.402344 218.320312 234.496094 217.53125 234.582031 216.777344 C 234.640625 216.269531 234.703125 215.746094 234.761719 215.230469 L 236.804688 215.410156 L 237.332031 215.445312 C 248.703125 215.960938 262.605469 213.550781 271.140625 209.585938 C 277.890625 206.457031 299.507812 195.046875 294.417969 179.640625 " fill-opacity="1" fill-rule="nonzero"/></g><path fill="#336791" d="M 274.976562 182.640625 C 241.171875 189.609375 238.847656 178.167969 238.847656 178.167969 C 274.542969 125.222656 289.460938 58.015625 276.585938 41.566406 C 241.457031 -3.304688 180.648438 17.917969 179.632812 18.46875 L 179.308594 18.527344 C 172.628906 17.140625 165.152344 16.3125 156.753906 16.175781 C 141.457031 15.925781 129.851562 20.1875 121.046875 26.859375 C 121.046875 26.859375 12.570312 -17.8125 17.617188 83.046875 C 18.691406 104.503906 48.378906 245.402344 83.792969 202.84375 C 96.738281 187.28125 109.246094 174.125 109.246094 174.125 C 115.457031 178.25 122.890625 180.351562 130.6875 179.597656 L 131.292969 179.082031 C 131.105469 181.015625 131.191406 182.90625 131.535156 185.144531 C 122.414062 195.332031 125.09375 197.121094 106.855469 200.875 C 88.402344 204.675781 99.242188 211.445312 106.320312 213.214844 C 114.902344 215.359375 134.753906 218.398438 148.167969 199.625 L 147.632812 201.769531 C 151.207031 204.628906 153.71875 220.386719 153.296875 234.667969 C 152.875 248.949219 152.59375 258.757812 155.410156 266.414062 C 158.226562 274.074219 161.035156 291.308594 185.011719 286.171875 C 205.042969 281.878906 215.425781 270.757812 216.871094 252.207031 C 217.894531 239.015625 220.214844 240.96875 220.359375 229.175781 L 222.21875 223.59375 C 224.367188 205.714844 222.5625 199.949219 234.902344 202.628906 L 237.902344 202.894531 C 246.988281 203.304688 258.875 201.433594 265.855469 198.191406 C 280.878906 191.21875 289.792969 179.582031 274.976562 182.640625 Z M 274.976562 182.640625 " fill-opacity="1" fill-rule="nonzero"/><path fill="#ffffff" d="M 127.398438 92.644531 C 124.351562 92.21875 121.59375 92.609375 120.195312 93.667969 C 119.410156 94.261719 119.167969 94.949219 119.101562 95.425781 C 118.929688 96.679688 119.808594 98.070312 120.347656 98.785156 C 121.878906 100.8125 124.113281 102.203125 126.324219 102.511719 C 126.648438 102.554688 126.964844 102.578125 127.28125 102.578125 C 130.972656 102.578125 134.324219 99.707031 134.621094 97.585938 C 134.992188 94.933594 131.136719 93.164062 127.398438 92.644531 " fill-opacity="1" fill-rule="nonzero"/><path fill="#ffffff" d="M 228.320312 92.726562 C 228.03125 90.644531 224.324219 90.050781 220.808594 90.542969 C 217.300781 91.03125 213.898438 92.613281 214.179688 94.699219 C 214.410156 96.320312 217.335938 99.089844 220.804688 99.089844 C 221.097656 99.089844 221.394531 99.070312 221.691406 99.027344 C 224.003906 98.707031 225.703125 97.238281 226.511719 96.390625 C 227.738281 95.101562 228.449219 93.660156 228.320312 92.726562 " fill-opacity="1" fill-rule="nonzero"/><path fill="#ffffff" d="M 286.226562 181.847656 C 284.9375 177.949219 280.789062 176.695312 273.894531 178.121094 C 253.429688 182.34375 246.101562 179.417969 243.691406 177.644531 C 259.601562 153.417969 272.6875 124.132812 279.75 96.808594 C 283.09375 83.863281 284.941406 71.84375 285.089844 62.046875 C 285.257812 51.292969 283.425781 43.390625 279.648438 38.566406 C 264.414062 19.105469 242.054688 8.667969 214.988281 8.378906 C 196.382812 8.171875 180.660156 12.929688 177.613281 14.269531 C 171.195312 12.671875 164.199219 11.695312 156.582031 11.570312 C 142.613281 11.34375 130.539062 14.6875 120.542969 21.5 C 116.199219 19.886719 104.980469 16.035156 91.257812 13.824219 C 67.53125 10.003906 48.675781 12.898438 35.222656 22.425781 C 19.167969 33.796875 11.757812 54.121094 13.191406 82.835938 C 13.675781 92.496094 19.179688 122.214844 27.871094 150.675781 C 39.308594 188.132812 51.742188 209.339844 64.824219 213.699219 C 66.355469 214.210938 68.121094 214.566406 70.066406 214.566406 C 74.839844 214.566406 80.6875 212.417969 86.777344 205.101562 C 96.886719 192.941406 106.328125 182.75 109.808594 179.050781 C 114.949219 181.808594 120.597656 183.351562 126.378906 183.503906 C 126.386719 183.65625 126.402344 183.804688 126.417969 183.957031 C 125.257812 185.332031 124.308594 186.535156 123.496094 187.566406 C 119.492188 192.644531 118.660156 193.703125 105.773438 196.355469 C 102.105469 197.113281 92.371094 199.117188 92.226562 205.941406 C 92.074219 213.394531 103.734375 216.523438 105.066406 216.855469 C 109.695312 218.015625 114.15625 218.585938 118.414062 218.585938 C 128.761719 218.585938 137.867188 215.1875 145.144531 208.609375 C 144.917969 235.183594 146.027344 261.371094 149.21875 269.347656 C 151.832031 275.878906 158.21875 291.84375 178.394531 291.839844 C 181.351562 291.839844 184.609375 291.496094 188.195312 290.730469 C 209.25 286.21875 218.390625 276.914062 221.925781 256.40625 C 223.820312 245.449219 227.066406 219.277344 228.59375 205.238281 C 231.820312 206.242188 235.96875 206.703125 240.457031 206.703125 C 249.8125 206.703125 260.609375 204.714844 267.382812 201.574219 C 274.988281 198.042969 288.714844 189.375 286.226562 181.847656 Z M 236.089844 86.984375 C 236.019531 91.128906 235.449219 94.890625 234.84375 98.816406 C 234.195312 103.042969 233.519531 107.410156 233.351562 112.710938 C 233.183594 117.867188 233.828125 123.234375 234.453125 128.417969 C 235.710938 138.894531 237.003906 149.683594 232 160.324219 C 231.222656 158.945312 230.472656 157.4375 229.785156 155.769531 C 229.164062 154.265625 227.8125 151.84375 225.945312 148.492188 C 218.667969 135.453125 201.636719 104.914062 210.355469 92.453125 C 212.953125 88.742188 219.542969 84.929688 236.089844 86.984375 Z M 216.035156 16.773438 C 240.285156 17.308594 259.46875 26.375 273.050781 43.726562 C 283.464844 57.035156 271.996094 117.585938 238.789062 169.824219 C 238.460938 169.410156 238.128906 168.988281 237.78125 168.558594 C 237.644531 168.382812 237.503906 168.210938 237.363281 168.03125 C 245.941406 153.863281 244.265625 139.847656 242.769531 127.421875 C 242.15625 122.320312 241.578125 117.503906 241.726562 112.980469 C 241.878906 108.183594 242.511719 104.070312 243.125 100.09375 C 243.878906 95.191406 244.648438 90.121094 244.433594 84.140625 C 244.59375 83.515625 244.65625 82.773438 244.574219 81.894531 C 244.035156 76.160156 237.488281 59.003906 224.140625 43.472656 C 216.839844 34.980469 206.195312 25.472656 191.660156 19.0625 C 197.914062 17.765625 206.460938 16.558594 216.035156 16.773438 Z M 80.335938 199.746094 C 73.628906 207.808594 68.996094 206.261719 67.472656 205.757812 C 57.550781 202.445312 46.035156 181.480469 35.882812 148.230469 C 27.097656 119.460938 21.964844 90.527344 21.558594 82.417969 C 20.277344 56.761719 26.496094 38.878906 40.050781 29.269531 C 62.109375 13.632812 98.371094 22.992188 112.941406 27.742188 C 112.734375 27.945312 112.515625 28.140625 112.308594 28.351562 C 88.398438 52.492188 88.964844 93.738281 89.023438 96.257812 C 89.019531 97.230469 89.101562 98.605469 89.214844 100.5 C 89.625 107.4375 90.390625 120.351562 88.347656 134.972656 C 86.445312 148.558594 90.632812 161.859375 99.839844 171.457031 C 100.792969 172.453125 101.785156 173.386719 102.8125 174.265625 C 98.714844 178.648438 89.8125 188.347656 80.335938 199.746094 Z M 105.886719 165.664062 C 98.46875 157.925781 95.097656 147.164062 96.644531 136.132812 C 98.800781 120.683594 98.003906 107.234375 97.578125 100.007812 C 97.515625 98.996094 97.464844 98.109375 97.433594 97.410156 C 100.925781 94.3125 117.113281 85.640625 128.65625 88.285156 C 133.925781 89.492188 137.136719 93.078125 138.46875 99.246094 C 145.378906 131.183594 139.382812 144.492188 134.570312 155.1875 C 133.578125 157.390625 132.640625 159.472656 131.839844 161.628906 L 131.21875 163.296875 C 129.648438 167.507812 128.183594 171.421875 127.277344 175.140625 C 119.394531 175.117188 111.722656 171.75 105.886719 165.664062 Z M 107.097656 208.730469 C 104.796875 208.15625 102.722656 207.160156 101.507812 206.328125 C 102.523438 205.851562 104.332031 205.203125 107.460938 204.558594 C 122.625 201.4375 124.964844 199.234375 130.078125 192.746094 C 131.25 191.257812 132.578125 189.570312 134.417969 187.515625 C 134.417969 187.515625 134.421875 187.515625 134.421875 187.515625 C 137.164062 184.445312 138.414062 184.964844 140.6875 185.910156 C 142.53125 186.671875 144.328125 188.980469 145.054688 191.519531 C 145.398438 192.722656 145.785156 195 144.519531 196.769531 C 133.839844 211.722656 118.277344 211.527344 107.097656 208.730469 Z M 186.4375 282.542969 C 167.890625 286.515625 161.324219 277.054688 157 266.238281 C 154.207031 259.257812 152.832031 227.773438 153.808594 193.003906 C 153.820312 192.542969 153.753906 192.09375 153.625 191.675781 C 153.515625 190.863281 153.34375 190.042969 153.109375 189.21875 C 151.660156 184.160156 148.128906 179.925781 143.894531 178.171875 C 142.214844 177.476562 139.125 176.195312 135.414062 177.144531 C 136.207031 173.886719 137.578125 170.207031 139.066406 166.222656 L 139.691406 164.542969 C 140.394531 162.65625 141.273438 160.695312 142.207031 158.625 C 147.246094 147.433594 154.148438 132.105469 146.660156 97.476562 C 143.851562 84.507812 134.484375 78.175781 120.28125 79.644531 C 111.765625 80.523438 103.976562 83.960938 100.09375 85.929688 C 99.257812 86.351562 98.492188 86.761719 97.777344 87.160156 C 98.863281 74.089844 102.960938 49.667969 118.285156 34.21875 C 127.933594 24.488281 140.785156 19.683594 156.445312 19.941406 C 187.292969 20.449219 207.078125 36.273438 218.242188 49.464844 C 227.863281 60.828125 233.074219 72.277344 235.152344 78.453125 C 219.515625 76.863281 208.882812 79.949219 203.492188 87.652344 C 191.765625 104.410156 209.90625 136.9375 218.628906 152.570312 C 220.226562 155.4375 221.605469 157.914062 222.039062 158.964844 C 224.878906 165.84375 228.554688 170.4375 231.242188 173.789062 C 232.0625 174.816406 232.863281 175.8125 233.46875 176.683594 C 228.734375 178.050781 220.226562 181.203125 221 196.964844 C 220.375 204.875 215.929688 241.902344 213.671875 254.984375 C 210.691406 272.269531 204.328125 278.707031 186.4375 282.542969 Z M 263.855469 193.976562 C 259.011719 196.226562 250.910156 197.910156 243.210938 198.273438 C 234.707031 198.671875 230.378906 197.320312 229.363281 196.488281 C 228.882812 186.667969 232.539062 185.640625 236.410156 184.554688 C 237.019531 184.382812 237.613281 184.21875 238.183594 184.015625 C 238.542969 184.304688 238.929688 184.59375 239.359375 184.875 C 246.191406 189.386719 258.382812 189.871094 275.589844 186.320312 C 275.652344 186.308594 275.714844 186.296875 275.777344 186.28125 C 273.457031 188.453125 269.488281 191.363281 263.855469 193.976562 Z M 263.855469 193.976562 " fill-opacity="1" fill-rule="nonzero"/></svg>