<svg xmlns="http://www.w3.org/2000/svg" xmlns:xlink="http://www.w3.org/1999/xlink" width="400" zoomAndPan="magnify" viewBox="0 0 300 299.999988" height="400" preserveAspectRatio="xMidYMid meet" version="1.0"><defs><clipPath id="480e523afd"><path d="M 26.128906 0 L 273.628906 0 L 273.628906 300 L 26.128906 300 Z M 26.128906 0 " clip-rule="nonzero"/></clipPath></defs><g clip-path="url(#480e523afd)"><path fill="#ee4c2c" d="M 237.164062 87.203125 C 285.785156 135.871094 285.785156 213.941406 237.164062 262.949219 C 189.554688 311.617188 111.21875 311.617188 62.59375 262.949219 C 13.972656 214.28125 13.972656 135.871094 62.59375 87.203125 L 149.710938 0.00390625 L 149.710938 43.601562 L 141.605469 51.714844 L 83.867188 109.507812 C 47.402344 145.332031 47.402344 204.140625 83.867188 240.640625 C 119.660156 277.144531 178.410156 277.144531 214.878906 240.640625 C 251.34375 204.816406 251.34375 146.007812 214.878906 109.507812 Z M 193.605469 81.792969 C 184.652344 81.792969 177.398438 74.53125 177.398438 65.570312 C 177.398438 56.613281 184.652344 49.347656 193.605469 49.347656 C 202.554688 49.347656 209.8125 56.613281 209.8125 65.570312 C 209.8125 74.53125 202.554688 81.792969 193.605469 81.792969 Z M 193.605469 81.792969 " fill-opacity="1" fill-rule="nonzero"/></g></svg>