<svg xmlns="http://www.w3.org/2000/svg" xmlns:xlink="http://www.w3.org/1999/xlink" width="400" zoomAndPan="magnify" viewBox="0 0 300 299.999988" height="400" preserveAspectRatio="xMidYMid meet" version="1.0"><defs><clipPath id="68a0609d4c"><path d="M 8.300781 0 L 291.800781 0 L 291.800781 300 L 8.300781 300 Z M 8.300781 0 " clip-rule="nonzero"/></clipPath></defs><g clip-path="url(#68a0609d4c)"><path fill="#ff6600" d="M 280.109375 119.898438 L 185.878906 119.898438 C 181.148438 119.898438 177.3125 116.0625 177.3125 111.335938 L 177.3125 13.167969 C 177.3125 5.898438 171.414062 0 164.144531 0 L 130.507812 0 C 123.234375 0 117.339844 5.898438 117.339844 13.167969 L 117.339844 110.742188 C 117.339844 115.804688 113.246094 119.917969 108.183594 119.941406 L 77.300781 120.089844 C 72.195312 120.117188 68.042969 115.972656 68.054688 110.871094 L 68.246094 13.1875 C 68.261719 5.90625 62.363281 0 55.082031 0 L 21.46875 0 C 14.195312 0 8.300781 5.898438 8.300781 13.167969 L 8.300781 288.054688 C 8.300781 294.511719 13.535156 299.746094 19.992188 299.746094 L 280.109375 299.746094 C 286.570312 299.746094 291.800781 294.511719 291.800781 288.054688 L 291.800781 131.585938 C 291.800781 125.128906 286.570312 119.898438 280.109375 119.898438 Z M 235.921875 223.109375 C 235.921875 231.570312 229.054688 238.433594 220.589844 238.433594 L 194.007812 238.433594 C 185.539062 238.433594 178.675781 231.570312 178.675781 223.109375 L 178.675781 196.535156 C 178.675781 188.070312 185.539062 181.210938 194.007812 181.210938 L 220.589844 181.210938 C 229.054688 181.210938 235.921875 188.070312 235.921875 196.535156 Z M 235.921875 223.109375 " fill-opacity="1" fill-rule="nonzero"/></g></svg>