<svg xmlns="http://www.w3.org/2000/svg" xmlns:xlink="http://www.w3.org/1999/xlink" width="2560" zoomAndPan="magnify" viewBox="0 0 1920 959.999988" height="1280" preserveAspectRatio="xMidYMid meet" version="1.0"><defs><filter x="0%" y="0%" width="100%" height="100%" id="318972b2b3"><feColorMatrix values="0 0 0 0 1 0 0 0 0 1 0 0 0 0 1 0 0 0 1 0" color-interpolation-filters="sRGB"/></filter><mask id="48ee5ffb0e"><g filter="url(#318972b2b3)"><rect x="-192" width="2304" fill="#000000" y="-95.999999" height="1151.999986" fill-opacity="0.149"/></g></mask><clipPath id="f600732c85"><path d="M 1 1 L 997 1 L 997 921.921875 L 1 921.921875 Z M 1 1 " clip-rule="nonzero"/></clipPath><clipPath id="747c2b360f"><rect x="0" width="998" y="0" height="922"/></clipPath><clipPath id="948ef6ea9a"><path d="M 883.492188 82 L 1919.992188 82 L 1919.992188 960 L 883.492188 960 Z M 883.492188 82 " clip-rule="nonzero"/></clipPath><clipPath id="ad1e89103a"><path d="M 886 276 L 1919.992188 276 L 1919.992188 960 L 886 960 Z M 886 276 " clip-rule="nonzero"/></clipPath><clipPath id="541d8c0070"><path d="M 1175 0 L 1919.992188 0 L 1919.992188 960 L 1175 960 Z M 1175 0 " clip-rule="nonzero"/></clipPath><clipPath id="a8f14cc8b4"><path d="M 0 0 L 980 0 L 980 922 L 0 922 Z M 0 0 " clip-rule="nonzero"/></clipPath><clipPath id="bca5acb9eb"><path d="M -157.0625 621.304688 L 260.160156 -341.425781 L 988.230469 -25.902344 L 571.007812 936.832031 Z M -157.0625 621.304688 " clip-rule="nonzero"/></clipPath><clipPath id="4b97c2177d"><path d="M -157.0625 621.304688 L 260.160156 -341.425781 L 988.230469 -25.902344 L 571.007812 936.832031 Z M -157.0625 621.304688 " clip-rule="nonzero"/></clipPath><mask id="98f907cc17"><g filter="url(#318972b2b3)"><rect x="-192" width="2304" fill="#000000" y="-95.999999" height="1151.999986" fill-opacity="0.149"/></g></mask><clipPath id="ada51875c0"><path d="M 0 0 L 965 0 L 965 689 L 0 689 Z M 0 0 " clip-rule="nonzero"/></clipPath><clipPath id="76afbd5793"><path d="M -157.0625 621.304688 L 260.160156 -341.425781 L 988.230469 -25.902344 L 571.007812 936.832031 Z M -157.0625 621.304688 " clip-rule="nonzero"/></clipPath><clipPath id="9092870750"><path d="M -157.0625 621.304688 L 260.160156 -341.425781 L 988.230469 -25.902344 L 571.007812 936.832031 Z M -157.0625 621.304688 " clip-rule="nonzero"/></clipPath><clipPath id="cebcaeb117"><rect x="0" width="980" y="0" height="922"/></clipPath><clipPath id="df00eb5a3b"><path d="M 0 0 L 918 0 L 918 683 L 0 683 Z M 0 0 " clip-rule="nonzero"/></clipPath><clipPath id="4456b9ce7b"><path d="M -157.0625 621.304688 L 260.160156 -341.425781 L 988.230469 -25.902344 L 571.007812 936.832031 Z M -157.0625 621.304688 " clip-rule="nonzero"/></clipPath><clipPath id="5c49677117"><path d="M -157.0625 621.304688 L 260.160156 -341.425781 L 988.230469 -25.902344 L 571.007812 936.832031 Z M -157.0625 621.304688 " clip-rule="nonzero"/></clipPath><clipPath id="4bde6634cd"><path d="M 0 8 L 912 8 L 912 665 L 0 665 Z M 0 8 " clip-rule="nonzero"/></clipPath><clipPath id="4f95645b58"><path d="M -157.0625 621.304688 L 260.160156 -341.425781 L 988.230469 -25.902344 L 571.007812 936.832031 Z M -157.0625 621.304688 " clip-rule="nonzero"/></clipPath><clipPath id="9d1f2b6ef0"><path d="M -157.0625 621.304688 L 260.160156 -341.425781 L 988.230469 -25.902344 L 571.007812 936.832031 Z M -157.0625 621.304688 " clip-rule="nonzero"/></clipPath><clipPath id="7b03f2141e"><path d="M 0 0 L 955 0 L 955 655 L 0 655 Z M 0 0 " clip-rule="nonzero"/></clipPath><clipPath id="430b2d0ec6"><path d="M -157.0625 621.304688 L 260.160156 -341.425781 L 988.230469 -25.902344 L 571.007812 936.832031 Z M -157.0625 621.304688 " clip-rule="nonzero"/></clipPath><clipPath id="bb17a127b4"><path d="M -157.0625 621.304688 L 260.160156 -341.425781 L 988.230469 -25.902344 L 571.007812 936.832031 Z M -157.0625 621.304688 " clip-rule="nonzero"/></clipPath></defs><g mask="url(#48ee5ffb0e)"><g transform="matrix(1, 0, 0, 1, 906, 22)"><g clip-path="url(#747c2b360f)"><g clip-path="url(#f600732c85)"><path fill="#000000" d="M 1.296875 921.269531 L 819.265625 921.265625 C 884.902344 786.539062 925.253906 700.253906 940.328125 662.410156 C 965.070312 604.722656 983.867188 555.789062 996.726562 515.605469 L 996.726562 1.085938 L 952.601562 47.054688 L 938.296875 139.253906 L 944.902344 200.261719 C 933.144531 200.230469 914.945312 228.234375 890.296875 284.269531 L 857.722656 308.703125 L 866.355469 340.378906 C 852.089844 356.566406 845.691406 367.707031 847.152344 373.800781 L 857.929688 415.894531 C 824.757812 443.308594 808.886719 457.847656 810.320312 459.519531 L 826.328125 506.28125 L 808.101562 562.671875 C 795.554688 568.625 786.738281 578.128906 781.660156 591.1875 L 781.507812 648.320312 C 773.871094 652.71875 756.933594 658.507812 730.699219 665.683594 C 723.933594 687.128906 715.671875 705.550781 705.910156 720.941406 C 685.472656 729.054688 670.683594 730.226562 661.546875 724.457031 C 660.925781 730.394531 659.492188 734.832031 657.253906 737.765625 C 644.835938 733.703125 618.660156 749.53125 578.722656 785.253906 C 573.816406 789.164062 571.898438 807.191406 572.964844 839.34375 L 517.496094 823.242188 C 513.054688 827.09375 505.667969 829.371094 495.332031 830.074219 C 476.089844 825.472656 466.292969 821.71875 465.945312 818.808594 L 426.769531 844.902344 L 409.347656 846.695312 C 403.078125 836.488281 386.449219 831.972656 359.460938 833.144531 L 261.011719 870.589844 C 238.550781 858.242188 211.910156 854.199219 181.085938 858.457031 L 157.226562 884.726562 C 151.726562 887.429688 133.785156 889.691406 103.402344 891.507812 C 105.15625 894.121094 93.886719 900.621094 69.59375 911.011719 L 9.808594 896.699219 C 6.171875 904.289062 3.332031 912.476562 1.296875 921.269531 Z M 1.296875 921.269531 " fill-opacity="1" fill-rule="nonzero"/></g></g></g></g><g clip-path="url(#948ef6ea9a)"><path fill="#545454" d="M 883.550781 959.972656 L 1156.871094 959.972656 L 1801.84375 868.628906 C 1818.519531 852.964844 1844.714844 700.699219 1880.429688 411.835938 L 1919.972656 255.996094 L 1919.972656 94.925781 L 1918.015625 82.90625 L 1844.125 200.195312 C 1842.160156 208.515625 1843.164062 217.023438 1847.144531 225.71875 L 1795.023438 295.941406 C 1805.539062 333.476562 1809.773438 357.273438 1807.722656 367.339844 C 1798.890625 383.792969 1794.59375 396.097656 1794.832031 404.253906 L 1728.0625 505.636719 L 1741.144531 544.839844 C 1729.046875 554.101562 1728.316406 571.214844 1738.953125 596.175781 L 1716.691406 631.902344 C 1716.53125 634.730469 1719.09375 644.957031 1724.378906 662.578125 C 1709.964844 674 1700.382812 688.863281 1695.636719 707.164062 L 1655.859375 747.992188 C 1656.40625 749.09375 1643.636719 750.257812 1617.554688 751.492188 L 1596.792969 759.957031 C 1578.488281 767.898438 1565.007812 779.152344 1556.355469 793.722656 C 1552.6875 795.902344 1537.199219 799.023438 1509.890625 803.09375 C 1440.140625 847.722656 1395.917969 867.605469 1377.21875 862.75 C 1370.089844 867.050781 1363.023438 875.21875 1356.027344 887.253906 L 1289.101562 873.675781 C 1289.789062 883.621094 1259.847656 884.503906 1199.277344 876.332031 L 1129.15625 916.457031 C 1104.03125 916.816406 1087.097656 920.128906 1078.355469 926.390625 L 1041.101562 921.472656 L 961.511719 943.285156 L 893.199219 937.277344 C 894.652344 940.410156 891.433594 947.976562 883.550781 959.972656 Z M 883.550781 959.972656 " fill-opacity="1" fill-rule="nonzero"/></g><g clip-path="url(#ad1e89103a)"><path fill="#737373" d="M 886.292969 959.972656 L 1297.871094 959.972656 L 1738.1875 916.492188 C 1764.265625 912.722656 1787.074219 899.25 1806.605469 876.074219 C 1815.234375 873.765625 1831.195312 840.859375 1854.484375 777.351562 L 1919.972656 545.886719 L 1919.195312 383.273438 L 1916.917969 372.121094 C 1911.746094 354.570312 1905.726562 339.988281 1898.863281 328.375 C 1870.285156 302.117188 1854.285156 284.835938 1850.867188 276.535156 C 1844.113281 293.546875 1846.9375 311.824219 1859.34375 331.359375 C 1801.945312 358.121094 1766.792969 373.628906 1753.890625 377.882812 L 1778.441406 416.207031 C 1775.046875 427.832031 1777.917969 441.714844 1787.054688 457.847656 C 1786.824219 459.464844 1784.339844 462.152344 1779.601562 465.914062 L 1763.625 549.675781 L 1772.375 586.0625 C 1755.183594 603.183594 1744.242188 610.929688 1739.542969 609.292969 C 1736.941406 618.136719 1736.023438 631.027344 1736.800781 647.964844 C 1728.875 654.957031 1720 660.726562 1710.179688 665.277344 C 1722.535156 683.597656 1726.792969 695.90625 1722.949219 702.203125 L 1719.941406 706.222656 L 1690.902344 711.714844 C 1680.21875 721.109375 1674.402344 727.675781 1673.445312 731.417969 C 1664.003906 731.898438 1652.234375 736.964844 1638.136719 746.617188 L 1613.351562 797.144531 L 1581.003906 809.527344 C 1578.324219 811.535156 1576.695312 813.894531 1576.117188 816.609375 L 1557.929688 808.703125 L 1491.625 814.757812 C 1489.085938 814.941406 1480.871094 820.378906 1466.972656 831.074219 L 1436.078125 836.109375 C 1421.949219 861.632812 1412.257812 875.902344 1407.007812 878.921875 L 1346.878906 902.015625 C 1333.402344 896.070312 1297.71875 897.414062 1239.824219 906.054688 C 1226.855469 909.601562 1219.25 917.617188 1217.011719 930.097656 L 1163.292969 943.503906 L 1117.832031 923.6875 C 1112.292969 931.480469 1097.128906 932.101562 1072.34375 925.558594 C 1063.472656 938.1875 1054.839844 944.570312 1046.453125 944.710938 C 1035.875 946.757812 1006.78125 944.007812 959.171875 936.460938 C 963.691406 938.417969 939.398438 946.257812 886.292969 959.972656 " fill-opacity="1" fill-rule="nonzero"/></g><g clip-path="url(#541d8c0070)"><path fill="#a6a6a6" d="M 1175.710938 959.972656 L 1919.976562 959.972656 L 1919.972656 -0.0195312 L 1894.863281 113.734375 L 1874.855469 134.039062 L 1862.933594 210.273438 L 1876.625 292.625 L 1840.363281 359.367188 L 1855.21875 407.800781 C 1838.574219 413.410156 1829.890625 419.703125 1829.167969 426.6875 L 1859.019531 435.042969 L 1834.0625 466.601562 C 1839.253906 481.402344 1841.917969 495.289062 1842.046875 508.257812 C 1840.621094 519.863281 1834.46875 524.019531 1823.589844 520.71875 L 1831.597656 555.019531 L 1800.113281 555.605469 C 1796.382812 571.453125 1796.238281 586.769531 1799.679688 601.558594 L 1768.636719 621.050781 L 1756.542969 686.460938 C 1749.488281 695.320312 1736.875 699.28125 1718.695312 698.351562 L 1709.152344 738.859375 L 1667.902344 792.1875 C 1651.648438 799.742188 1621.746094 802.121094 1578.1875 799.328125 C 1547.621094 813.382812 1528.601562 819.652344 1521.132812 818.140625 L 1517.226562 832.429688 C 1497.484375 830.3125 1483.4375 831.636719 1475.085938 836.402344 L 1449.625 869.253906 C 1445.023438 874.433594 1441.816406 877.023438 1440.003906 877.023438 L 1379.40625 870.933594 L 1371.792969 882.269531 C 1342.066406 881.222656 1319.558594 882.34375 1304.265625 885.632812 C 1284.855469 891.65625 1274.304688 907.261719 1272.625 932.445312 C 1255.046875 924.664062 1233.199219 924.203125 1207.085938 931.058594 L 1202.902344 932.355469 C 1196.871094 942.167969 1187.804688 951.375 1175.710938 959.972656 Z M 1175.710938 959.972656 " fill-opacity="1" fill-rule="nonzero"/></g><g clip-path="url(#a8f14cc8b4)"><g clip-path="url(#bca5acb9eb)"><g clip-path="url(#4b97c2177d)"><g mask="url(#98f907cc17)"><g transform="matrix(1, 0, 0, 1, 0, -0.000000000000026998)"><g clip-path="url(#cebcaeb117)"><g clip-path="url(#ada51875c0)"><g clip-path="url(#76afbd5793)"><g clip-path="url(#9092870750)"><path fill="#000000" d="M -81.027344 496.050781 L -81.21875 496.554688 C -81.605469 497.820312 -81.058594 498.402344 -79.578125 498.304688 C -79.769531 527.121094 -78.746094 546.464844 -76.503906 556.339844 C -60.933594 592.929688 -51.332031 624.441406 -47.699219 650.878906 L 33.457031 687.722656 C 67.972656 690.257812 90.785156 688.632812 101.890625 682.851562 L 137.859375 661.097656 C 138.015625 652.878906 150.359375 630.050781 174.898438 592.613281 L 332.042969 532.128906 C 355.644531 519.53125 367.816406 507.964844 368.554688 497.429688 L 450.261719 447.472656 C 503.613281 425.3125 534.203125 410.027344 542.027344 401.621094 C 647.1875 387.070312 722.609375 364.410156 768.285156 333.636719 C 805.976562 296.101562 822.5625 269.640625 818.039062 254.261719 L 861.703125 211.070312 L 883.90625 128.53125 L 963.226562 19.179688 C 968.941406 14.511719 959.1875 -3.578125 933.96875 -35.085938 L -38.703125 454.714844 C -61.421875 473.988281 -75.53125 487.765625 -81.027344 496.050781 " fill-opacity="1" fill-rule="nonzero"/></g></g></g></g></g></g></g></g></g><g clip-path="url(#df00eb5a3b)"><g clip-path="url(#4456b9ce7b)"><g clip-path="url(#5c49677117)"><path fill="#545454" d="M 18.402344 579.453125 L 17.597656 581.34375 L 12.902344 594.523438 C 5.308594 638.484375 -0.890625 664.664062 -5.703125 673.066406 L -5.035156 676.699219 C -1.097656 685.375 30.648438 684.667969 90.203125 674.578125 C 109.296875 665.078125 125.21875 649.960938 137.976562 629.222656 L 184.363281 595.269531 C 195.335938 588.523438 204.261719 584.847656 211.136719 584.238281 L 210.585938 529.230469 L 207.75 524.15625 L 322.839844 508.847656 C 359.695312 484.695312 384.867188 464.351562 398.351562 447.820312 C 425.054688 447.085938 445.429688 435.757812 459.476562 413.832031 L 512.558594 415.101562 L 523.421875 411.570312 C 534.269531 408.238281 552.476562 401.320312 578.039062 390.8125 L 669.585938 345.246094 C 686.082031 337.996094 703.285156 331.488281 721.199219 325.71875 C 732.269531 308.875 744.800781 294.746094 758.792969 283.332031 C 768.464844 273.246094 788.238281 263.21875 818.117188 253.257812 C 824.363281 248.6875 830.550781 243.472656 836.675781 237.617188 C 864.015625 208.867188 884.722656 180.511719 898.789062 152.5625 L 917.511719 -25.828125 L 579.054688 24.351562 C 573.71875 31.023438 522.558594 61.71875 425.570312 116.441406 C 359.921875 174.296875 285.164062 243.570312 201.296875 324.265625 C 158.816406 366.113281 130.195312 397.097656 115.4375 417.222656 L 23.242188 569.046875 L 18.402344 579.453125 " fill-opacity="1" fill-rule="nonzero"/></g></g></g><g clip-path="url(#4bde6634cd)"><g clip-path="url(#4f95645b58)"><g clip-path="url(#9d1f2b6ef0)"><path fill="#737373" d="M -111.589844 516.449219 L -113.523438 521.207031 C -118.34375 533.875 -120.429688 546.46875 -119.792969 558.984375 L -73.832031 601.515625 L -43.996094 663.320312 C -25.601562 661.988281 -9.425781 657.9375 4.523438 651.167969 C 34.066406 656.234375 49.960938 660.773438 52.210938 664.789062 L 100.003906 658.972656 C 108.640625 657.6875 135.300781 631.253906 179.984375 579.675781 C 208.109375 575.796875 238.410156 562.800781 270.890625 540.695312 C 277.878906 529.375 278.414062 509.878906 272.5 482.207031 C 295.535156 477.617188 320.917969 465.828125 348.644531 446.835938 L 359.152344 439.378906 L 375.109375 411.703125 L 408.199219 394.53125 L 506.503906 420.90625 C 572.378906 378.414062 612.007812 357.578125 625.382812 358.402344 C 644.71875 341.359375 668.757812 315.4375 697.496094 280.640625 C 701.828125 283.183594 716.023438 283.078125 740.089844 280.324219 C 759.621094 276.3125 779.957031 267.140625 801.09375 252.808594 L 833.398438 227.4375 L 871.675781 169.550781 C 881.691406 119.636719 891.179688 91.257812 900.144531 84.40625 C 898.015625 57.578125 901.738281 32.414062 911.3125 8.921875 L 13.230469 399.179688 C -21.597656 421.226562 -41.015625 434.410156 -45.023438 438.738281 C -56.117188 447.476562 -65.980469 456.179688 -74.609375 464.847656 C -91.871094 482.1875 -104.195312 499.386719 -111.589844 516.449219 " fill-opacity="1" fill-rule="nonzero"/></g></g></g><g clip-path="url(#7b03f2141e)"><g clip-path="url(#430b2d0ec6)"><g clip-path="url(#bb17a127b4)"><path fill="#a6a6a6" d="M -79.734375 458.117188 L -80.265625 459.417969 C -86.015625 482.191406 -88.582031 499.78125 -87.964844 512.183594 L -68.539062 554.414062 L -75.632812 599.503906 C -72.484375 608.511719 -68.695312 614.941406 -64.269531 618.792969 C -57.890625 623.136719 -51.734375 625.496094 -45.808594 625.871094 L 17.128906 616.628906 C 18.789062 622.050781 24.992188 625.546875 35.742188 627.121094 C 41.246094 629.382812 61.777344 628.347656 97.335938 624.015625 L 154.265625 654.894531 C 151.078125 603.054688 158.566406 566.582031 176.722656 545.46875 C 190.394531 533.195312 206.773438 526.292969 225.851562 524.761719 C 236.105469 511.824219 247.519531 502.554688 260.097656 496.964844 L 264.871094 495.039062 L 301.316406 493.929688 C 323.742188 480.277344 337.6875 468.011719 343.140625 457.132812 L 369.507812 456.226562 C 367.3125 454.09375 376.113281 427.449219 395.910156 376.296875 C 417.996094 371.667969 442.410156 374.78125 469.152344 385.636719 C 500.167969 366.867188 523.246094 359.457031 538.386719 363.398438 L 569.503906 344.394531 C 662.496094 323.265625 716.210938 305.996094 730.652344 292.585938 L 798.238281 289.925781 C 817.019531 264.765625 836.179688 219.949219 855.71875 155.488281 C 871.824219 143.972656 882.394531 134.105469 887.433594 125.882812 L 954.335938 -32.492188 C 945.851562 -33.753906 894.351562 -58.832031 799.835938 -107.726562 C 700.679688 -150.511719 646.289062 -170.496094 636.671875 -167.679688 C 628.160156 -171.007812 602.863281 -184.386719 560.777344 -207.8125 C 538.910156 -193.441406 522.175781 -184.753906 510.574219 -181.753906 C 514.90625 -182.507812 500.234375 -188.105469 466.566406 -198.535156 C 431.59375 -199.679688 409.542969 -201.851562 400.414062 -205.058594 L 370.492188 -197.15625 L 338.355469 -155.144531 L 300.261719 -35.464844 C 292.777344 -34.429688 276.976562 -10.917969 252.867188 35.070312 C 235.449219 75.265625 226.355469 108.878906 225.585938 135.910156 C 207.277344 154.355469 192.835938 190.917969 182.265625 245.59375 C 160.382812 271.265625 136.707031 292.726562 111.230469 309.96875 C 74.976562 322.382812 44.175781 337.269531 18.828125 354.632812 C 6.855469 352.992188 -7.027344 354.027344 -22.816406 357.734375 L -48.671875 387.207031 C -49.410156 386.953125 -50.148438 397.929688 -50.886719 420.136719 C -68.230469 439.109375 -77.847656 451.769531 -79.734375 458.117188 " fill-opacity="1" fill-rule="nonzero"/></g></g></g></svg>