<svg xmlns="http://www.w3.org/2000/svg" xmlns:xlink="http://www.w3.org/1999/xlink" width="500" zoomAndPan="magnify" viewBox="0 0 375 374.999991" height="500" preserveAspectRatio="xMidYMid meet" version="1.0"><defs><clipPath id="523dca3219"><path d="M 48.070312 60 L 327 60 L 327 315 L 48.070312 315 Z M 48.070312 60 " clip-rule="nonzero"/></clipPath><clipPath id="11ef11f566"><path d="M 56.710938 68 L 318.460938 68 L 318.460938 307 L 56.710938 307 Z M 56.710938 68 " clip-rule="nonzero"/></clipPath></defs><g clip-path="url(#523dca3219)"><path fill="#ffffff" d="M 269.882812 60.746094 C 301.382812 60.746094 326.917969 86.28125 326.917969 117.78125 C 326.917969 145.453125 307.214844 168.523438 281.070312 173.722656 C 286.109375 185.75 288.894531 198.972656 288.894531 212.84375 C 288.894531 268.84375 243.496094 314.242188 187.496094 314.242188 C 131.492188 314.242188 86.09375 268.84375 86.09375 212.84375 C 86.09375 198.972656 88.882812 185.75 93.925781 173.707031 C 67.773438 168.523438 48.070312 145.453125 48.070312 117.78125 C 48.070312 86.28125 73.605469 60.746094 105.109375 60.746094 C 135.5625 60.746094 160.441406 84.613281 162.0625 114.664062 C 170.191406 112.5625 178.710938 111.445312 187.496094 111.445312 C 196.277344 111.445312 204.796875 112.5625 212.925781 114.660156 C 214.546875 84.613281 239.425781 60.746094 269.882812 60.746094 Z M 269.882812 60.746094 " fill-opacity="1" fill-rule="nonzero"/></g><g clip-path="url(#11ef11f566)"><path fill="#000000" d="M 99.746094 174.660156 C 75.207031 169.777344 56.710938 148.125 56.710938 122.148438 C 56.710938 92.578125 80.683594 68.609375 110.25 68.609375 C 138.835938 68.609375 162.191406 91.011719 163.710938 119.21875 C 171.339844 117.25 179.339844 116.199219 187.585938 116.199219 C 195.832031 116.199219 203.832031 117.25 211.460938 119.21875 C 212.980469 91.011719 236.335938 68.609375 264.921875 68.609375 C 294.492188 68.609375 318.460938 92.578125 318.460938 122.148438 C 318.460938 148.125 299.964844 169.777344 275.425781 174.660156 C 280.15625 185.957031 282.769531 198.367188 282.769531 211.382812 C 282.769531 263.949219 240.152344 306.5625 187.585938 306.5625 C 135.019531 306.5625 92.40625 263.949219 92.40625 211.382812 C 92.40625 198.367188 95.015625 185.957031 99.746094 174.660156 Z M 80.507812 122.148438 C 80.507812 138.578125 93.824219 151.894531 110.25 151.894531 C 111.320312 151.894531 112.375 151.835938 113.414062 151.726562 C 120.554688 142.859375 129.25 135.300781 139.089844 129.464844 C 139.679688 127.125 139.996094 124.671875 139.996094 122.148438 C 139.996094 105.722656 126.679688 92.40625 110.25 92.40625 C 93.824219 92.40625 80.507812 105.722656 80.507812 122.148438 Z M 261.757812 151.726562 C 262.796875 151.835938 263.851562 151.894531 264.921875 151.894531 C 281.347656 151.894531 294.664062 138.578125 294.664062 122.148438 C 294.664062 105.722656 281.347656 92.40625 264.921875 92.40625 C 248.496094 92.40625 235.175781 105.722656 235.175781 122.148438 C 235.175781 124.671875 235.492188 127.125 236.082031 129.464844 C 245.921875 135.300781 254.621094 142.859375 261.757812 151.726562 Z M 116.199219 211.382812 C 116.199219 250.808594 148.160156 282.769531 187.585938 282.769531 C 227.011719 282.769531 258.972656 250.808594 258.972656 211.382812 C 258.972656 171.957031 227.011719 139.996094 187.585938 139.996094 C 148.160156 139.996094 116.199219 171.957031 116.199219 211.382812 Z M 116.199219 211.382812 " fill-opacity="1" fill-rule="nonzero"/></g></svg>