<svg xmlns="http://www.w3.org/2000/svg" xmlns:xlink="http://www.w3.org/1999/xlink" width="2160" zoomAndPan="magnify" viewBox="0 0 1620 299.999988" height="400" preserveAspectRatio="xMidYMid meet" version="1.0"><defs><clipPath id="d8a8697e80"><path d="M 30 92 L 143.25 92 L 143.25 210 L 30 210 Z M 30 92 " clip-rule="nonzero"/></clipPath><clipPath id="2b80c0913c"><path d="M 427.035156 92 L 546 92 L 546 210 L 427.035156 210 Z M 427.035156 92 " clip-rule="nonzero"/></clipPath><clipPath id="c050445c0d"><path d="M 427.035156 90 L 544 90 L 544 206 L 427.035156 206 Z M 427.035156 90 " clip-rule="nonzero"/></clipPath><clipPath id="dc092c6d2b"><path d="M 166 92 L 284.96875 92 L 284.96875 210 L 166 210 Z M 166 92 " clip-rule="nonzero"/></clipPath><clipPath id="3c6c2af2b1"><path d="M 165.71875 90 L 282 90 L 282 206 L 165.71875 206 Z M 165.71875 90 " clip-rule="nonzero"/></clipPath><clipPath id="495df244d5"><path d="M 307 92 L 404.335938 92 L 404.335938 210 L 307 210 Z M 307 92 " clip-rule="nonzero"/></clipPath><clipPath id="08139603fa"><path d="M 306.835938 90 L 402 90 L 402 206 L 306.835938 206 Z M 306.835938 90 " clip-rule="nonzero"/></clipPath><clipPath id="0d43a5d82e"><path d="M 569 92 L 649.484375 92 L 649.484375 210 L 569 210 Z M 569 92 " clip-rule="nonzero"/></clipPath><clipPath id="4765ee3721"><path d="M 568.484375 90 L 647 90 L 647 206 L 568.484375 206 Z M 568.484375 90 " clip-rule="nonzero"/></clipPath><clipPath id="20e6d15553"><path d="M 794.085938 92 L 923.835938 92 L 923.835938 210 L 794.085938 210 Z M 794.085938 92 " clip-rule="nonzero"/></clipPath><clipPath id="01ea16a51c"><path d="M 794.085938 90 L 922 90 L 922 206 L 794.085938 206 Z M 794.085938 90 " clip-rule="nonzero"/></clipPath><clipPath id="087714d61c"><path d="M 947 92 L 1065.800781 92 L 1065.800781 210 L 947 210 Z M 947 92 " clip-rule="nonzero"/></clipPath><clipPath id="55e6de4d30"><path d="M 946.550781 90 L 1063 90 L 1063 206 L 946.550781 206 Z M 946.550781 90 " clip-rule="nonzero"/></clipPath><clipPath id="926f65c3d2"><path d="M 1088 92 L 1168.949219 92 L 1168.949219 210 L 1088 210 Z M 1088 92 " clip-rule="nonzero"/></clipPath><clipPath id="5a21b45f03"><path d="M 1087.949219 90 L 1166 90 L 1166 206 L 1087.949219 206 Z M 1087.949219 90 " clip-rule="nonzero"/></clipPath><clipPath id="2ff5f252e1"><path d="M 1191.199219 92 L 1243.699219 92 L 1243.699219 210 L 1191.199219 210 Z M 1191.199219 92 " clip-rule="nonzero"/></clipPath><clipPath id="16778ba38b"><path d="M 1191.199219 90 L 1241 90 L 1241 206 L 1191.199219 206 Z M 1191.199219 90 " clip-rule="nonzero"/></clipPath><clipPath id="4e122a107b"><path d="M 1402 92 L 1514.800781 92 L 1514.800781 210 L 1402 210 Z M 1402 92 " clip-rule="nonzero"/></clipPath><clipPath id="ca8e184329"><path d="M 1401.550781 90 L 1513 90 L 1513 206 L 1401.550781 206 Z M 1401.550781 90 " clip-rule="nonzero"/></clipPath><clipPath id="4615d0baf0"><path d="M 1537.550781 90 L 1588 90 L 1588 206 L 1537.550781 206 Z M 1537.550781 90 " clip-rule="nonzero"/></clipPath></defs><path fill="#000000" d="M 42.011719 207.667969 L 32.867188 98.082031 L 66.402344 96.21875 L 71.3125 121.285156 L 108.574219 94.863281 L 128.730469 118.40625 L 106.207031 139.917969 L 141.09375 180.058594 L 113.492188 202.246094 L 75.886719 161.765625 L 77.917969 202.246094 Z M 42.011719 207.667969 " fill-opacity="1" fill-rule="nonzero"/><g clip-path="url(#d8a8697e80)"><path stroke-linecap="butt" transform="matrix(0.542005, 0, 0, 0.542005, -3372.568756, 87.544169)" fill="none" stroke-linejoin="round" d="M 6299.901538 221.628431 L 6283.029876 19.442358 L 6344.902245 16.004604 L 6353.961484 62.252127 L 6422.709361 13.503764 L 6459.897646 56.940545 L 6418.3419 96.629669 L 6482.707902 170.689129 L 6431.783014 211.62507 L 6362.400918 136.938599 L 6366.148575 211.62507 Z M 6299.901538 221.628431 " stroke="#000000" stroke-width="8.33" stroke-opacity="1" stroke-miterlimit="2"/></g><path stroke-linecap="butt" transform="matrix(0.542005, 0, 0, 0.542005, -3374.140468, 84.055817)" fill-opacity="1" fill="#737373" fill-rule="nonzero" stroke-linejoin="round" d="M 6299.896913 221.628561 L 6283.032458 19.442488 L 6344.89762 16.004734 L 6353.956859 62.252257 L 6422.711943 13.503894 L 6459.900228 56.940675 L 6418.337275 96.629799 L 6482.710484 170.689259 L 6431.778389 211.6252 L 6362.4035 136.938729 L 6366.151157 211.6252 Z M 6299.896913 221.628561 " stroke="#ffffff" stroke-width="4.58" stroke-opacity="1" stroke-miterlimit="2"/><path fill="#000000" d="M 486.867188 94.589844 L 486.699219 94.589844 C 476.445312 94.589844 466.953125 97.125 458.222656 102.199219 C 449.492188 107.273438 442.59375 114.148438 437.515625 122.824219 C 432.441406 131.5 429.90625 140.964844 429.90625 151.222656 C 429.90625 161.480469 432.441406 170.949219 437.515625 179.621094 C 442.59375 188.296875 449.492188 195.171875 458.222656 200.246094 C 466.953125 205.320312 476.445312 207.859375 486.699219 207.859375 L 486.867188 207.859375 C 497.125 207.859375 506.621094 205.320312 515.347656 200.246094 C 524.078125 195.171875 530.980469 188.296875 536.050781 179.621094 C 541.128906 170.949219 543.664062 161.480469 543.664062 151.222656 C 543.664062 140.964844 541.128906 131.5 536.050781 122.824219 C 530.980469 114.148438 524.078125 107.273438 515.347656 102.199219 C 506.621094 97.125 497.125 94.589844 486.867188 94.589844 Z M 472.464844 136.820312 C 476.394531 133 481.054688 131.089844 486.460938 131.089844 C 491.859375 131.089844 496.46875 133 500.289062 136.820312 C 504.105469 140.636719 506.019531 145.25 506.019531 150.652344 C 506.019531 156.050781 504.105469 160.664062 500.289062 164.480469 C 496.46875 168.300781 491.859375 170.210938 486.460938 170.210938 C 481.054688 170.210938 476.417969 168.300781 472.542969 164.480469 C 468.671875 160.664062 466.734375 156.050781 466.734375 150.652344 C 466.734375 145.25 468.644531 140.636719 472.464844 136.820312 Z M 472.464844 136.820312 " fill-opacity="1" fill-rule="nonzero"/><g clip-path="url(#2b80c0913c)"><path stroke-linecap="butt" transform="matrix(0.523789, 0, 0, 0.523789, -4109.083792, 67.621122)" fill="none" stroke-linejoin="round" d="M 8774.437841 51.487792 L 8774.117161 51.487792 C 8754.540741 51.487792 8736.41857 56.327829 8719.750648 66.01536 C 8703.082725 75.70289 8689.912456 88.828413 8680.217468 105.391928 C 8670.529937 121.955444 8665.6899 140.025411 8665.6899 159.609288 C 8665.6899 179.193164 8670.529937 197.270589 8680.217468 213.826647 C 8689.912456 230.390162 8703.082725 243.515685 8719.750648 253.203216 C 8736.41857 262.890746 8754.540741 267.738241 8774.117161 267.738241 L 8774.437841 267.738241 C 8794.021718 267.738241 8812.151346 262.890746 8828.811811 253.203216 C 8845.479734 243.515685 8858.657461 230.390162 8868.337534 213.826647 C 8878.032523 197.270589 8882.872559 179.193164 8882.872559 159.609288 C 8882.872559 140.025411 8878.032523 121.955444 8868.337534 105.391928 C 8858.657461 88.828413 8845.479734 75.70289 8828.811811 66.01536 C 8812.151346 56.327829 8794.021718 51.487792 8774.437841 51.487792 Z M 8746.941362 132.112808 C 8754.443792 124.819194 8763.340808 121.172387 8773.662242 121.172387 C 8783.968761 121.172387 8792.768827 124.819194 8800.062442 132.112808 C 8807.348598 139.398965 8811.002863 148.206489 8811.002863 158.520466 C 8811.002863 168.826984 8807.348598 177.634509 8800.062442 184.920665 C 8792.768827 192.21428 8783.968761 195.861087 8773.662242 195.861087 C 8763.340808 195.861087 8754.488538 192.21428 8747.090516 184.920665 C 8739.699951 177.634509 8736.00094 168.826984 8736.00094 158.520466 C 8736.00094 148.206489 8739.647747 139.398965 8746.941362 132.112808 Z M 8746.941362 132.112808 " stroke="#000000" stroke-width="8.33" stroke-opacity="1" stroke-miterlimit="2"/></g><path fill="#737373" d="M 485.355469 91.21875 L 485.1875 91.21875 C 474.929688 91.21875 465.441406 93.753906 456.707031 98.828125 C 447.976562 103.902344 441.078125 110.777344 436.003906 119.453125 C 430.929688 128.128906 428.394531 137.59375 428.394531 147.851562 C 428.394531 158.109375 430.929688 167.578125 436.003906 176.25 C 441.078125 184.925781 447.976562 191.800781 456.707031 196.875 C 465.441406 201.949219 474.929688 204.488281 485.1875 204.488281 L 485.355469 204.488281 C 495.609375 204.488281 505.105469 201.949219 513.832031 196.875 C 522.566406 191.800781 529.46875 184.925781 534.539062 176.25 C 539.613281 167.578125 542.148438 158.109375 542.148438 147.851562 C 542.148438 137.59375 539.613281 128.128906 534.539062 119.453125 C 529.46875 110.777344 522.566406 103.902344 513.832031 98.828125 C 505.105469 93.753906 495.609375 91.21875 485.355469 91.21875 Z M 470.949219 133.449219 C 474.878906 129.628906 479.539062 127.71875 484.945312 127.71875 C 490.347656 127.71875 494.957031 129.628906 498.773438 133.449219 C 502.59375 137.265625 504.503906 141.878906 504.503906 147.28125 C 504.503906 152.679688 502.59375 157.292969 498.773438 161.109375 C 494.957031 164.929688 490.347656 166.839844 484.945312 166.839844 C 479.539062 166.839844 474.90625 164.929688 471.027344 161.109375 C 467.160156 157.292969 465.21875 152.679688 465.21875 147.28125 C 465.21875 141.878906 467.132812 137.265625 470.949219 133.449219 Z M 470.949219 133.449219 " fill-opacity="1" fill-rule="nonzero"/><g clip-path="url(#c050445c0d)"><path stroke-linecap="butt" transform="matrix(0.523789, 0, 0, 0.523789, -4110.597232, 64.25002)" fill="none" stroke-linejoin="round" d="M 8774.441127 51.487808 L 8774.120447 51.487808 C 8754.53657 51.487808 8736.421856 56.327845 8719.746476 66.015376 C 8703.078553 75.702906 8689.908284 88.828429 8680.220753 105.391944 C 8670.533223 121.95546 8665.693186 140.025427 8665.693186 159.609304 C 8665.693186 179.19318 8670.533223 197.270605 8680.220753 213.826663 C 8689.908284 230.390178 8703.078553 243.515701 8719.746476 253.203232 C 8736.421856 262.890762 8754.53657 267.738257 8774.120447 267.738257 L 8774.441127 267.738257 C 8794.017546 267.738257 8812.147175 262.890762 8828.80764 253.203232 C 8845.48302 243.515701 8858.660747 230.390178 8868.34082 213.826663 C 8878.028351 197.270605 8882.868387 179.19318 8882.868387 159.609304 C 8882.868387 140.025427 8878.028351 121.95546 8868.34082 105.391944 C 8858.660747 88.828429 8845.48302 75.702906 8828.80764 66.015376 C 8812.147175 56.327845 8794.017546 51.487808 8774.441127 51.487808 Z M 8746.93719 132.112824 C 8754.43962 124.81921 8763.336636 121.172403 8773.65807 121.172403 C 8783.972046 121.172403 8792.772113 124.81921 8800.05827 132.112824 C 8807.351884 139.398981 8810.998691 148.206505 8810.998691 158.520482 C 8810.998691 168.827 8807.351884 177.634525 8800.05827 184.920681 C 8792.772113 192.214296 8783.972046 195.861103 8773.65807 195.861103 C 8763.336636 195.861103 8754.491824 192.214296 8747.086344 184.920681 C 8739.703237 177.634525 8735.996768 168.827 8735.996768 158.520482 C 8735.996768 148.206505 8739.651033 139.398981 8746.93719 132.112824 Z M 8746.93719 132.112824 " stroke="#ffffff" stroke-width="4.58" stroke-opacity="1" stroke-miterlimit="2"/></g><path fill="#000000" d="M 244.449219 94.917969 L 202.589844 97.007812 L 168.753906 196.078125 L 203.460938 207.417969 L 210.265625 187.53125 L 244.449219 186.3125 L 252.824219 204.453125 L 281.949219 189.625 Z M 225.265625 132.765625 L 236.949219 157.359375 L 217.242188 159.453125 Z M 225.265625 132.765625 " fill-opacity="1" fill-rule="nonzero"/><g clip-path="url(#dc092c6d2b)"><path stroke-linecap="butt" transform="matrix(0.558139, 0, 0, 0.558139, 49.940808, 78.678135)" fill="none" stroke-linejoin="round" d="M 348.49428 29.096372 L 273.496223 32.840676 L 212.873495 210.341674 L 275.056933 230.658897 L 287.248667 195.028521 L 348.49428 192.844927 L 363.49949 225.346884 L 415.681788 198.779824 Z M 314.12367 96.906764 L 335.056778 140.970572 L 299.748343 144.721875 Z M 314.12367 96.906764 " stroke="#000000" stroke-width="8.33" stroke-opacity="1" stroke-miterlimit="2"/></g><path fill="#737373" d="M 242.835938 91.324219 L 200.976562 93.417969 L 167.136719 192.488281 L 201.847656 203.824219 L 208.648438 183.941406 L 242.835938 182.71875 L 251.207031 200.859375 L 280.335938 186.035156 Z M 223.648438 129.171875 L 235.335938 153.765625 L 215.625 155.859375 Z M 223.648438 129.171875 " fill-opacity="1" fill-rule="nonzero"/><g clip-path="url(#3c6c2af2b1)"><path stroke-linecap="butt" transform="matrix(0.558139, 0, 0, 0.558139, 48.325552, 75.086507)" fill="none" stroke-linejoin="round" d="M 348.497816 29.092571 L 273.49976 32.843874 L 212.870032 210.344872 L 275.06047 230.655096 L 287.245204 195.031719 L 348.497816 192.841126 L 363.496027 225.343083 L 415.685324 198.783022 Z M 314.120208 96.902963 L 335.060314 140.966771 L 299.74488 144.718074 Z M 314.120208 96.902963 " stroke="#ffffff" stroke-width="4.58" stroke-opacity="1" stroke-miterlimit="2"/></g><path fill="#000000" d="M 338.996094 94.609375 C 335.917969 94.609375 331.777344 94.6875 326.574219 94.847656 C 321.375 95.003906 318.246094 95.082031 317.183594 95.082031 L 309.460938 194.960938 L 340.5625 196.695312 L 343.390625 173.976562 C 347.074219 173.660156 349.5 173.632812 350.660156 173.894531 C 351.820312 174.160156 353.03125 174.765625 354.296875 175.710938 L 377.621094 207.425781 L 402.109375 191.015625 L 383.023438 162.140625 C 385.398438 160.25 387.46875 158.460938 389.132812 156.777344 C 390.851562 155.09375 392.515625 152.988281 394.132812 150.464844 C 395.746094 147.941406 396.910156 145.335938 397.617188 142.65625 C 398.273438 139.972656 398.523438 136.84375 398.324219 133.265625 C 398.121094 129.691406 397.261719 125.851562 395.796875 121.75 C 394.183594 117.121094 391.859375 113.125 388.78125 109.757812 C 385.648438 106.390625 382.367188 103.761719 378.832031 101.867188 C 375.300781 99.976562 371.160156 98.449219 366.414062 97.292969 C 361.71875 96.136719 357.222656 95.398438 353.03125 95.082031 C 348.792969 94.769531 344.148438 94.609375 338.996094 94.609375 Z M 351.113281 124.90625 C 358.285156 124.800781 362.980469 127.113281 365.152344 131.847656 C 367.070312 135.84375 366.414062 139.578125 363.28125 143.050781 C 359.699219 146.941406 354.398438 148.519531 347.328125 147.78125 L 348.945312 125.0625 C 349.648438 124.957031 350.40625 124.90625 351.113281 124.90625 Z M 351.113281 124.90625 " fill-opacity="1" fill-rule="nonzero"/><g clip-path="url(#495df244d5)"><path stroke-linecap="butt" transform="matrix(0.504905, 0, 0, 0.504905, -5008.305399, 94.856234)" fill="none" stroke-linejoin="round" d="M 10590.698599 -0.488921 C 10584.60216 -0.488921 10576.401368 -0.334189 10566.096221 -0.0169885 C 10555.79881 0.292475 10549.601796 0.447207 10547.497441 0.447207 L 10532.202189 198.264255 L 10593.800974 201.699304 L 10599.40227 156.703256 C 10606.697881 156.076591 10611.502308 156.022435 10613.800077 156.540787 C 10616.097847 157.066876 10618.496192 158.266048 10621.002849 160.138305 L 10667.198069 222.951735 L 10715.698796 190.450292 L 10677.897783 133.261367 C 10682.601634 129.516854 10686.70203 125.973493 10689.997821 122.639019 C 10693.401923 119.304546 10696.697714 115.13452 10699.900665 110.136679 C 10703.095879 105.138837 10705.401385 99.978527 10706.801709 94.671222 C 10708.101458 89.356179 10708.5966 83.159165 10708.202033 76.072442 C 10707.79973 68.993456 10706.097679 61.388381 10703.196455 53.264955 C 10700.001241 44.097087 10695.397965 36.182549 10689.301527 29.513602 C 10683.096776 22.844655 10676.598035 17.637926 10669.596415 13.885676 C 10662.602531 10.141163 10654.401738 7.116154 10645.001773 4.826121 C 10635.702383 2.536088 10626.79756 1.073872 10618.496192 0.447207 C 10610.101984 -0.17172 10600.90317 -0.488921 10590.698599 -0.488921 Z M 10614.697523 59.516125 C 10628.901915 59.307237 10638.201304 63.887302 10642.502852 73.264058 C 10646.301521 81.178596 10645.001773 88.574783 10638.797022 95.452618 C 10631.702563 103.158268 10621.204001 106.283854 10607.20076 104.821637 L 10610.403711 59.825589 C 10611.796299 59.616701 10613.297199 59.516125 10614.697523 59.516125 Z M 10614.697523 59.516125 " stroke="#000000" stroke-width="8.33" stroke-opacity="1" stroke-miterlimit="2"/></g><path fill="#737373" d="M 337.53125 91.359375 C 334.453125 91.359375 330.3125 91.441406 325.109375 91.597656 C 319.910156 91.753906 316.78125 91.832031 315.71875 91.832031 L 307.996094 191.710938 L 339.097656 193.445312 L 341.925781 170.726562 C 345.609375 170.410156 348.035156 170.382812 349.195312 170.648438 C 350.355469 170.910156 351.566406 171.515625 352.832031 172.460938 L 376.15625 204.175781 L 400.644531 187.765625 L 381.558594 158.890625 C 383.933594 157 386.003906 155.210938 387.667969 153.527344 C 389.386719 151.84375 391.050781 149.742188 392.667969 147.214844 C 394.28125 144.691406 395.445312 142.085938 396.152344 139.40625 C 396.808594 136.722656 397.058594 133.59375 396.859375 130.015625 C 396.65625 126.441406 395.796875 122.601562 394.332031 118.5 C 392.71875 113.871094 390.394531 109.875 387.316406 106.507812 C 384.183594 103.140625 380.902344 100.511719 377.367188 98.617188 C 373.835938 96.726562 369.695312 95.199219 364.949219 94.042969 C 360.253906 92.886719 355.757812 92.148438 351.566406 91.832031 C 347.328125 91.519531 342.683594 91.359375 337.53125 91.359375 Z M 349.648438 121.65625 C 356.820312 121.550781 361.515625 123.863281 363.6875 128.597656 C 365.605469 132.59375 364.949219 136.328125 361.816406 139.800781 C 358.234375 143.691406 352.929688 145.269531 345.863281 144.535156 L 347.480469 121.8125 C 348.183594 121.707031 348.941406 121.65625 349.648438 121.65625 Z M 349.648438 121.65625 " fill-opacity="1" fill-rule="nonzero"/><g clip-path="url(#08139603fa)"><path stroke-linecap="butt" transform="matrix(0.504905, 0, 0, 0.504905, -5009.770358, 91.606663)" fill="none" stroke-linejoin="round" d="M 10590.698829 -0.489771 C 10584.60239 -0.489771 10576.401598 -0.327302 10566.096451 -0.0178383 C 10555.79904 0.291626 10549.602026 0.446357 10547.497671 0.446357 L 10532.202419 198.263405 L 10593.801204 201.698454 L 10599.4025 156.702406 C 10606.698111 156.075742 10611.502538 156.021586 10613.800307 156.547674 C 10616.098077 157.066026 10618.496422 158.265199 10621.003079 160.137455 L 10667.198299 222.950886 L 10715.699026 190.449442 L 10677.898013 133.260517 C 10682.601864 129.516004 10686.70226 125.972643 10689.998051 122.63817 C 10693.402153 119.303696 10696.697944 115.141407 10699.900895 110.135829 C 10703.096109 105.137987 10705.401615 99.977677 10706.801939 94.670372 C 10708.101688 89.35533 10708.59683 83.158315 10708.202263 76.071593 C 10707.79996 68.992606 10706.097909 61.387532 10703.196685 53.264105 C 10700.001471 44.096237 10695.398195 36.181699 10689.301757 29.512752 C 10683.097006 22.843806 10676.598265 17.637076 10669.596645 13.884826 C 10662.602761 10.140313 10654.401968 7.115304 10645.002003 4.825271 C 10635.702613 2.535239 10626.79779 1.073022 10618.496422 0.446357 C 10610.102214 -0.17257 10600.9034 -0.489771 10590.698829 -0.489771 Z M 10614.697753 59.515275 C 10628.902145 59.306387 10638.201534 63.886452 10642.503082 73.263208 C 10646.301751 81.177747 10645.002003 88.573933 10638.797252 95.451768 C 10631.702793 103.157419 10621.196494 106.283004 10607.20099 104.828524 L 10610.403941 59.824739 C 10611.796529 59.615851 10613.297429 59.515275 10614.697753 59.515275 Z M 10614.697753 59.515275 " stroke="#ffffff" stroke-width="4.58" stroke-opacity="1" stroke-miterlimit="2"/></g><path fill="#000000" d="M 571.359375 203.535156 L 577.21875 94.957031 L 616.6875 96.851562 L 610.480469 169.238281 L 646.847656 171.308594 L 644.953125 207.5 Z M 571.359375 203.535156 " fill-opacity="1" fill-rule="nonzero"/><g clip-path="url(#0d43a5d82e)"><path stroke-linecap="butt" transform="matrix(0.551518, 0, 0, 0.551518, -3200.17353, 55.104207)" fill="none" stroke-linejoin="round" d="M 6838.463035 269.131832 L 6849.087129 72.260292 L 6920.651025 75.695415 L 6909.396568 206.94547 L 6975.336777 210.699317 L 6971.901653 276.320803 Z M 6838.463035 269.131832 " stroke="#000000" stroke-width="8.33" stroke-opacity="1" stroke-miterlimit="2"/></g><path fill="#737373" d="M 569.757812 199.988281 L 575.621094 91.40625 L 615.085938 93.304688 L 608.882812 165.691406 L 645.25 167.757812 L 643.351562 203.949219 Z M 569.757812 199.988281 " fill-opacity="1" fill-rule="nonzero"/><g clip-path="url(#4765ee3721)"><path stroke-linecap="butt" transform="matrix(0.551518, 0, 0, 0.551518, -3201.772914, 51.554641)" fill="none" stroke-linejoin="round" d="M 6838.459085 269.136712 L 6849.090262 72.258088 L 6920.647075 75.700295 L 6909.399701 206.95035 L 6975.339909 210.697113 L 6971.897703 276.318599 Z M 6838.459085 269.136712 " stroke="#ffffff" stroke-width="4.58" stroke-opacity="1" stroke-miterlimit="2"/></g><path fill="#000000" d="M 797.117188 193.484375 L 836.402344 95.765625 L 862.921875 144.378906 L 888.617188 94.621094 L 921.519531 193.976562 L 888.78125 206.089844 L 878.960938 176.136719 L 860.957031 199.542969 L 844.257812 177.117188 L 830.183594 207.5625 Z M 797.117188 193.484375 " fill-opacity="1" fill-rule="nonzero"/><g clip-path="url(#20e6d15553)"><path stroke-linecap="butt" transform="matrix(0.523789, 0, 0, 0.523789, -3091.389555, 58.831946)" fill="none" stroke-linejoin="round" d="M 7423.808665 257.07397 L 7498.810588 70.51256 L 7549.440802 163.323431 L 7598.497444 68.327458 L 7661.313512 258.013638 L 7598.810667 281.139915 L 7580.06205 223.954398 L 7545.689587 268.640837 L 7513.80799 225.826276 L 7486.937956 283.951462 Z M 7423.808665 257.07397 " stroke="#000000" stroke-width="8.33" stroke-opacity="1" stroke-miterlimit="2"/></g><path fill="#737373" d="M 795.597656 190.113281 L 834.882812 92.394531 L 861.402344 141.007812 L 887.097656 91.25 L 920 190.605469 L 887.261719 202.71875 L 877.441406 172.765625 L 859.4375 196.171875 L 842.738281 173.746094 L 828.664062 204.191406 Z M 795.597656 190.113281 " fill-opacity="1" fill-rule="nonzero"/><g clip-path="url(#01ea16a51c)"><path stroke-linecap="butt" transform="matrix(0.523789, 0, 0, 0.523789, -3092.908539, 55.461367)" fill="none" stroke-linejoin="round" d="M 7423.80762 257.072987 L 7498.809543 70.511577 L 7549.439757 163.322448 L 7598.496399 68.326475 L 7661.312467 258.012655 L 7598.809622 281.138932 L 7580.061005 223.953415 L 7545.688542 268.639854 L 7513.806945 225.825293 L 7486.936911 283.950479 Z M 7423.80762 257.072987 " stroke="#ffffff" stroke-width="4.58" stroke-opacity="1" stroke-miterlimit="2"/></g><path fill="#000000" d="M 1025.285156 94.917969 L 983.421875 97.007812 L 949.585938 196.078125 L 984.296875 207.417969 L 991.097656 187.53125 L 1025.285156 186.3125 L 1033.65625 204.453125 L 1062.785156 189.625 Z M 1006.097656 132.765625 L 1017.785156 157.359375 L 998.074219 159.453125 Z M 1006.097656 132.765625 " fill-opacity="1" fill-rule="nonzero"/><g clip-path="url(#087714d61c)"><path stroke-linecap="butt" transform="matrix(0.558139, 0, 0, 0.558139, 830.773501, 78.678135)" fill="none" stroke-linejoin="round" d="M 348.500093 29.096372 L 273.495038 32.840676 L 212.872309 210.341674 L 275.062746 230.658897 L 287.247481 195.028521 L 348.500093 192.844927 L 363.498304 225.346884 L 415.687601 198.779824 Z M 314.122484 96.906764 L 335.062591 140.970572 L 299.747157 144.721875 Z M 314.122484 96.906764 " stroke="#000000" stroke-width="8.33" stroke-opacity="1" stroke-miterlimit="2"/></g><path fill="#737373" d="M 1023.667969 91.324219 L 981.808594 93.417969 L 947.96875 192.488281 L 982.679688 203.824219 L 989.480469 183.941406 L 1023.667969 182.71875 L 1032.039062 200.859375 L 1061.167969 186.035156 Z M 1004.480469 129.171875 L 1016.167969 153.765625 L 996.457031 155.859375 Z M 1004.480469 129.171875 " fill-opacity="1" fill-rule="nonzero"/><g clip-path="url(#55e6de4d30)"><path stroke-linecap="butt" transform="matrix(0.558139, 0, 0, 0.558139, 829.158253, 75.086507)" fill="none" stroke-linejoin="round" d="M 348.496617 29.092571 L 273.498561 32.843874 L 212.868834 210.344872 L 275.059271 230.655096 L 287.244006 195.031719 L 348.496617 192.841126 L 363.494829 225.343083 L 415.684126 198.783022 Z M 314.119009 96.902963 L 335.059116 140.966771 L 299.743682 144.718074 Z M 314.119009 96.902963 " stroke="#ffffff" stroke-width="4.58" stroke-opacity="1" stroke-miterlimit="2"/></g><path fill="#000000" d="M 1090.824219 203.535156 L 1096.6875 94.957031 L 1136.152344 96.851562 L 1129.949219 169.238281 L 1166.316406 171.308594 L 1164.417969 207.5 Z M 1090.824219 203.535156 " fill-opacity="1" fill-rule="nonzero"/><g clip-path="url(#926f65c3d2)"><path stroke-linecap="butt" transform="matrix(0.551518, 0, 0, 0.551518, -2680.707877, 55.104207)" fill="none" stroke-linejoin="round" d="M 6838.461567 269.131832 L 6849.092743 72.260292 L 6920.649557 75.695415 L 6909.402183 206.94547 L 6975.342391 210.699317 L 6971.900185 276.320803 Z M 6838.461567 269.131832 " stroke="#000000" stroke-width="8.33" stroke-opacity="1" stroke-miterlimit="2"/></g><path fill="#737373" d="M 1089.222656 199.988281 L 1095.085938 91.40625 L 1134.554688 93.304688 L 1128.347656 165.691406 L 1164.714844 167.757812 L 1162.820312 203.949219 Z M 1089.222656 199.988281 " fill-opacity="1" fill-rule="nonzero"/><g clip-path="url(#5a21b45f03)"><path stroke-linecap="butt" transform="matrix(0.551518, 0, 0, 0.551518, -2682.307261, 51.554641)" fill="none" stroke-linejoin="round" d="M 6838.457617 269.136712 L 6849.088793 72.258088 L 6920.652689 75.700295 L 6909.398232 206.95035 L 6975.338441 210.697113 L 6971.903317 276.318599 Z M 6838.457617 269.136712 " stroke="#ffffff" stroke-width="4.58" stroke-opacity="1" stroke-miterlimit="2"/></g><path fill="#000000" d="M 1194.074219 97.015625 L 1202.222656 207.308594 L 1241.242188 205.226562 L 1233.613281 95.109375 Z M 1194.074219 97.015625 " fill-opacity="1" fill-rule="nonzero"/><g clip-path="url(#2ff5f252e1)"><path stroke-linecap="butt" transform="matrix(0.554935, 0, 0, 0.554935, -1606.329676, 76.076478)" fill="none" stroke-linejoin="round" d="M 5046.359556 37.732581 L 5061.043133 236.48176 L 5131.35677 232.729916 L 5117.609395 34.297496 Z M 5046.359556 37.732581 " stroke="#000000" stroke-width="8.33" stroke-opacity="1" stroke-miterlimit="2"/></g><path fill="#737373" d="M 1192.464844 93.445312 L 1200.613281 203.738281 L 1239.632812 201.65625 L 1232.003906 91.535156 Z M 1192.464844 93.445312 " fill-opacity="1" fill-rule="nonzero"/><g clip-path="url(#16778ba38b)"><path stroke-linecap="butt" transform="matrix(0.554935, 0, 0, 0.554935, -1607.93914, 72.504911)" fill="none" stroke-linejoin="round" d="M 5046.359716 37.734841 L 5061.043293 236.484021 L 5131.35693 232.732177 L 5117.609555 34.292718 Z M 5046.359716 37.734841 " stroke="#ffffff" stroke-width="4.58" stroke-opacity="1" stroke-miterlimit="2"/></g><path stroke-linecap="butt" transform="matrix(0.544959, 0, 0, 0.544959, 512.512023, 64.200537)" fill-opacity="1" fill="#000000" fill-rule="nonzero" stroke-linejoin="round" d="M 1544.91886 65.175918 L 1537.112942 126.734432 C 1507.939311 120.491131 1486.693452 123.924588 1473.361031 137.049138 C 1464.193199 146.009099 1461.283004 156.216286 1464.608941 167.677868 C 1467.533472 178.716539 1474.823296 186.113883 1486.492749 189.86273 C 1503.358979 195.489585 1523.57265 191.109957 1547.112258 176.73818 L 1585.238683 224.54853 C 1570.859738 238.09599 1555.548957 248.037963 1539.299173 254.395951 C 1523.049388 260.746771 1507.631088 263.406087 1493.05144 262.359564 C 1478.471792 261.320208 1464.659117 257.886751 1451.642086 252.052025 C 1438.617887 246.217299 1427.321169 238.09599 1417.737595 227.673764 C 1408.146853 217.258706 1400.971717 205.596421 1396.169178 192.672574 C 1390.12658 176.214918 1388.413436 159.033298 1391.022577 141.113376 C 1393.617381 123.193455 1400.756678 106.943671 1412.418962 92.364023 C 1424.088415 77.777207 1440.911637 67.627363 1462.888629 61.892989 C 1484.872788 56.165782 1512.218588 57.262481 1544.91886 65.175918 Z M 1544.91886 65.175918 " stroke="#000000" stroke-width="8.33" stroke-opacity="1" stroke-miterlimit="2"/><path stroke-linecap="butt" transform="matrix(0.544959, 0, 0, 0.544959, 510.937071, 60.693182)" fill-opacity="1" fill="#737373" fill-rule="nonzero" stroke-linejoin="round" d="M 1544.920205 65.175079 L 1537.10712 126.74076 C 1507.940656 120.490291 1486.687629 123.923748 1473.362376 137.048299 C 1464.187376 146.008259 1461.277181 156.215446 1464.610286 167.677028 C 1467.52765 178.7157 1474.817474 186.113043 1486.486926 189.861891 C 1503.360324 195.488746 1523.566827 191.116285 1547.106436 176.73734 L 1585.240028 224.54769 C 1570.861083 238.095151 1555.550303 248.037123 1539.300518 254.395111 C 1523.050734 260.745931 1507.632433 263.405247 1493.052785 262.365892 C 1478.473137 261.319368 1464.660462 257.885912 1451.643431 252.051185 C 1438.619233 246.216459 1427.322514 238.095151 1417.73894 227.672924 C 1408.148199 217.257866 1400.973062 205.595581 1396.170523 192.678902 C 1390.127926 176.221246 1388.407613 159.032458 1391.016754 141.112537 C 1393.618726 123.199784 1400.758023 106.949999 1412.420308 92.363183 C 1424.08976 77.783535 1440.912983 67.626524 1462.889974 61.892149 C 1484.866965 56.164942 1512.219933 57.261641 1544.920205 65.175079 Z M 1544.920205 65.175079 " stroke="#ffffff" stroke-width="4.58" stroke-opacity="1" stroke-miterlimit="2"/><path fill="#000000" d="M 1413.5625 207.667969 L 1404.417969 98.082031 L 1437.949219 96.21875 L 1442.863281 121.285156 L 1480.125 94.863281 L 1500.28125 118.40625 L 1477.757812 139.917969 L 1512.644531 180.058594 L 1485.039062 202.246094 L 1447.4375 161.765625 L 1449.46875 202.246094 Z M 1413.5625 207.667969 " fill-opacity="1" fill-rule="nonzero"/><g clip-path="url(#4e122a107b)"><path stroke-linecap="butt" transform="matrix(0.542005, 0, 0, 0.542005, -2001.018788, 87.544169)" fill="none" stroke-linejoin="round" d="M 6299.903038 221.628431 L 6283.031377 19.442358 L 6344.896538 16.004604 L 6353.962985 62.252127 L 6422.710862 13.503764 L 6459.899146 56.940545 L 6418.3434 96.629669 L 6482.709402 170.689129 L 6431.777308 211.62507 L 6362.402419 136.938599 L 6366.150075 211.62507 Z M 6299.903038 221.628431 " stroke="#000000" stroke-width="8.33" stroke-opacity="1" stroke-miterlimit="2"/></g><path fill="#737373" d="M 1411.988281 204.179688 L 1402.84375 94.59375 L 1436.378906 92.730469 L 1441.289062 117.796875 L 1478.554688 91.375 L 1498.710938 114.917969 L 1476.183594 136.429688 L 1511.074219 176.570312 L 1483.46875 198.757812 L 1445.863281 158.277344 L 1447.898438 198.757812 Z M 1411.988281 204.179688 " fill-opacity="1" fill-rule="nonzero"/><g clip-path="url(#ca8e184329)"><path stroke-linecap="butt" transform="matrix(0.542005, 0, 0, 0.542005, -2002.5905, 84.055817)" fill="none" stroke-linejoin="round" d="M 6299.898413 221.628561 L 6283.026751 19.442488 L 6344.89912 16.004734 L 6353.958359 62.252257 L 6422.713444 13.503894 L 6459.901728 56.940675 L 6418.338775 96.629799 L 6482.711984 170.689259 L 6431.77989 211.6252 L 6362.397794 136.938729 L 6366.152657 211.6252 Z M 6299.898413 221.628561 " stroke="#ffffff" stroke-width="4.58" stroke-opacity="1" stroke-miterlimit="2"/></g><path stroke-linecap="butt" transform="matrix(0.554935, 0, 0, 0.554935, -1259.979585, 76.076478)" fill-opacity="1" fill="#000000" fill-rule="nonzero" stroke-linejoin="round" d="M 5046.362206 37.732581 L 5061.038744 236.48176 L 5131.35942 232.729916 L 5117.612045 34.297496 Z M 5046.362206 37.732581 " stroke="#000000" stroke-width="8.33" stroke-opacity="1" stroke-miterlimit="2"/><path fill="#737373" d="M 1538.816406 93.445312 L 1546.960938 203.738281 L 1585.984375 201.65625 L 1578.355469 91.535156 Z M 1538.816406 93.445312 " fill-opacity="1" fill-rule="nonzero"/><g clip-path="url(#4615d0baf0)"><path stroke-linecap="butt" transform="matrix(0.554935, 0, 0, 0.554935, -1261.589049, 72.504911)" fill="none" stroke-linejoin="round" d="M 5046.362366 37.734841 L 5061.038904 236.484021 L 5131.359581 232.732177 L 5117.612205 34.292718 Z M 5046.362366 37.734841 " stroke="#ffffff" stroke-width="4.58" stroke-opacity="1" stroke-miterlimit="2"/></g></svg>